<?xml version="1.0" encoding="utf-8"?>
<svg width="608px" height="608px" viewBox="0 0 608 608" version="1.1" xmlns:xlink="http://www.w3.org/1999/xlink" xmlns="http://www.w3.org/2000/svg">
  <defs>
    <path d="M0 0L608 0L608 608L0 608L0 0Z" id="path_1" />
    <clipPath id="clip_1">
      <use xlink:href="#path_1" />
    </clipPath>
  </defs>
  <g id="айдентика 1" clip-path="url(#clip_1)">
    <path d="M0 0L608 0L608 608L0 608L0 0Z" id="айдентика-1" fill="none" fill-rule="evenodd" stroke="none" />
    <path d="M452.851 155.795C496.427 155.108 533.143 169.34 562.999 198.493C584.782 219.754 598.779 246.054 604.989 277.394C605.822 281.59 606.404 285.744 606.737 289.857C607.205 295.651 608.329 301.102 607.907 306.958C607.45 313.112 606.805 318.984 605.972 324.575C600.688 360.298 584.954 390.081 558.77 413.924C529.581 440.505 494.295 453.379 452.913 452.546C452.362 452.536 452.091 452.801 452.102 453.343C452.975 488.149 443.4 519.202 423.375 546.502C397.503 581.767 358.353 603.116 315.192 606.771C310.688 607.156 307.297 607.531 305.019 607.895C302.069 608.364 298.215 607.13 295.204 606.942C243.32 603.678 198.35 574.348 173.508 529.151C161.046 506.453 155.137 481.231 155.782 453.483C155.793 452.921 155.522 452.645 154.971 452.655C107.15 452.968 68.1035 436.153 37.8318 402.21C18.6701 380.731 6.73831 354.707 2.03631 324.138C1.30292 319.39 1.45896 314.58 0.491517 309.91C0.0546077 307.765 -0.0910247 305.667 0.0546077 303.616C0.585137 296.432 1.37574 289.331 2.42641 282.314C7.63814 247.658 24.8493 215.782 51.2512 192.762C80.337 167.409 114.879 155.108 154.877 155.857C155.418 155.868 155.683 155.597 155.673 155.045C154.966 111.045 169.555 74.0155 199.442 43.9567C222.598 20.6759 251.507 6.55235 286.169 1.58593C291.037 0.883141 295.921 1.10179 300.728 0.258431C302.673 -0.0747451 304.623 -0.0851592 306.579 0.227189C312.118 1.13302 317.783 0.992464 323.338 1.85143C368.953 8.98351 404.073 31.4001 428.696 69.1011C445.049 94.1623 452.83 122.784 452.039 154.967C452.018 155.529 452.289 155.805 452.851 155.795L452.851 155.795ZM293.846 43.3944C291.734 51.8592 290.2 59.5743 289.243 66.5398C281.145 125.184 281.285 186.187 291.615 245.05C292.598 250.657 294.486 255.998 295.126 261.526C295.25 262.547 295.443 262.562 295.703 261.573C296.421 258.778 295.984 255.92 295.984 253.093C295.901 178.69 295.875 107.38 295.906 39.162C295.906 33.4147 295.568 33.3939 294.892 39.0996C294.881 39.2245 294.533 40.6561 293.846 43.3944L293.846 43.3944ZM322.433 107.739C320.966 83.0321 317.986 59.8867 312.602 37.3504C312.488 36.8506 312.384 36.8558 312.29 37.366C311.775 40.3334 312.196 43.2383 312.196 46.2525C312.186 117.271 312.181 188.077 312.181 258.668C312.181 261.355 312.482 261.391 313.086 258.778C316.737 242.921 319.348 226.381 320.919 209.16C323.967 175.843 324.472 142.036 322.433 107.739L322.433 107.739ZM277.883 40.0679C277.935 39.9846 277.972 39.8961 277.993 39.8024C278.138 39.1152 278.055 39.0892 277.743 39.7243C271.47 52.2653 266.758 65.306 263.574 79.1277C254.451 118.713 253.38 160.314 260.36 203.928C260.683 205.969 261.515 207.76 262.857 209.301C265.613 212.477 268.224 215.907 270.69 219.593C271.21 220.374 271.423 220.296 271.33 219.359C265.785 168.966 266.17 118.895 272.484 69.148C273.337 62.4428 275.064 52.9212 277.665 40.5832C277.696 40.3958 277.769 40.224 277.883 40.0679L277.883 40.0679ZM346.244 87.4362C343.014 70.8503 337.849 54.6235 330.328 39.8024C329.756 38.6883 329.6 38.7456 329.86 39.9742C333.293 56.2165 335.738 72.5943 337.194 89.1073C341.126 133.68 340.689 177.868 335.883 221.67C335.821 222.201 335.93 222.238 336.211 221.779C339.04 217.146 342.161 212.841 345.573 208.864C346.53 207.739 347.139 206.406 347.399 204.865C354.088 164.874 353.703 125.731 346.244 87.4362L346.244 87.4362ZM257.489 45.4091C257.666 44.9614 257.884 44.5241 258.144 44.0972C258.186 44.0139 258.16 43.9671 258.066 43.9567C258.014 43.9462 257.967 43.9619 257.926 44.0035C257.863 44.0556 257.806 44.118 257.754 44.1909C244.813 63.4007 236.205 84.6355 231.93 107.895C227.529 131.822 226.936 155.654 230.151 179.393C230.192 179.705 230.343 179.95 230.603 180.127L241.604 188.28C241.659 188.315 241.729 188.317 241.785 188.284C241.842 188.251 241.874 188.189 241.869 188.123C238.14 154.577 239.201 120.593 245.24 87.5612C247.882 73.0784 251.965 59.0277 257.489 45.4091L257.489 45.4091ZM366.108 188.686L377.203 180.424C377.577 180.143 377.795 179.768 377.858 179.299C382.404 144.524 379.418 111.722 368.901 80.8925C364.771 68.8044 359.149 57.5701 352.033 47.1895C350.847 45.4508 350.65 45.5549 351.44 47.5019C354.956 56.2374 357.718 64.8948 359.726 73.4741C368.402 110.509 370.493 148.892 365.999 188.623C365.988 188.727 366.025 188.748 366.108 188.686L366.108 188.686ZM236.111 48.5639C207.899 79.9866 196.524 122.685 200.441 164.541C200.472 164.811 200.607 164.999 200.846 165.103L212.549 170.069C212.799 170.184 212.914 170.101 212.893 169.819C210.958 148.319 212.071 126.496 216.232 104.35C219.987 84.2659 226.629 65.6028 236.158 48.3609C236.2 48.288 236.262 48.2671 236.346 48.2984C238.676 49.3708 238.65 49.4437 236.268 48.517C236.205 48.4962 236.153 48.5118 236.111 48.5639L236.111 48.5639ZM378.513 61.4328C387.72 82.4959 393.306 105.11 395.272 129.276C396.385 142.967 396.343 156.201 395.147 168.976C395.043 170.111 395.49 170.408 396.489 169.866C399.527 168.232 402.684 166.894 405.961 165.853C406.853 165.566 407.494 164.79 407.599 163.869C407.797 162.151 407.942 160.314 408.036 158.356C409.862 119.031 399.376 80.7363 373.676 50.8441C372.428 49.3864 372.287 49.4853 373.255 51.1408C375.273 54.5871 377.026 58.0178 378.513 61.4328L378.513 61.4328ZM210.224 55.7168C183.682 82.9227 169.873 119.093 172.135 157.247C172.146 157.497 172.27 157.643 172.51 157.685L183.464 159.793C183.693 159.845 183.802 159.751 183.791 159.512C181.773 121.759 190.506 87.2384 209.99 55.951C210.032 55.8886 210.084 55.8417 210.146 55.8105C210.198 55.7897 210.224 55.7584 210.224 55.7168L210.224 55.7168ZM407.287 72.8181C420.217 100.087 425.804 129.031 424.046 159.652C424.035 159.902 424.15 160.001 424.389 159.949L435.421 157.716C435.702 157.664 435.847 157.492 435.858 157.2C437.522 118.729 425.33 85.4788 399.282 57.4503C399.157 57.3046 399.017 57.2942 398.861 57.4191L398.845 57.4191C398.72 57.5232 398.705 57.6377 398.798 57.7627C401.94 62.4896 404.77 67.5081 407.287 72.8181L407.287 72.8181ZM156.859 172.303C120.642 170.116 84.5813 183.11 58.4915 208.005C57.9141 208.551 57.212 208.91 56.6658 209.488C56.1665 210.009 56.2237 210.077 56.8375 209.691C88.1078 190.44 122.28 181.892 159.356 184.047C159.453 184.055 159.548 184.015 159.612 183.938C159.677 183.861 159.703 183.757 159.683 183.657L157.514 172.865C157.441 172.511 157.223 172.323 156.859 172.303L156.859 172.303ZM535.396 200.805C541.127 203.533 546.5 206.63 551.515 210.097C551.598 210.16 551.67 210.149 551.733 210.066L551.733 210.051C551.785 209.988 551.785 209.931 551.733 209.879C547.395 205.683 543.125 202.013 538.922 198.868C513.04 179.461 483.674 170.585 450.822 172.24C450.562 172.261 450.406 172.396 450.354 172.646L448.201 183.75C448.159 183.948 448.237 184.042 448.435 184.032C479.195 182.241 508.182 187.832 535.396 200.805L535.396 200.805ZM175.053 174.614C174.892 174.578 174.723 174.627 174.606 174.744C174.489 174.861 174.44 175.03 174.476 175.192L176.894 185.422C176.939 185.604 177.085 185.744 177.269 185.781L186.803 187.686C186.956 187.713 187.112 187.664 187.223 187.556C187.334 187.448 187.387 187.293 187.365 187.139L185.726 177.425C185.695 177.235 185.554 177.082 185.367 177.035L175.053 174.614L175.053 174.614ZM430.615 185.952C430.813 185.921 430.973 185.773 431.021 185.578L433.595 175.176C433.631 175.011 433.58 174.838 433.46 174.718C433.34 174.598 433.168 174.547 433.002 174.583L422.641 177.129C422.451 177.174 422.304 177.327 422.267 177.519L420.394 187.015C420.361 187.177 420.41 187.346 420.525 187.465C420.641 187.584 420.808 187.637 420.972 187.608L430.615 185.952L430.615 185.952ZM203.967 183.813C203.799 183.729 203.597 183.75 203.45 183.867C203.303 183.984 203.237 184.176 203.281 184.36L205.216 192.325C205.251 192.481 205.362 192.61 205.512 192.668L215.998 196.651C216.163 196.718 216.352 196.688 216.489 196.574C216.626 196.459 216.689 196.279 216.653 196.104L215.374 189.873C215.348 189.726 215.256 189.599 215.124 189.529L203.967 183.813L203.967 183.813ZM403.511 184.047L393.119 189.685C392.827 189.852 392.645 190.102 392.572 190.435L391.184 196.916C391.174 196.962 391.191 197.009 391.227 197.039C391.263 197.068 391.313 197.075 391.355 197.057L401.077 193.199C402.054 192.814 402.663 192.111 402.902 191.091L404.431 184.766C404.66 183.829 404.353 183.589 403.511 184.047L403.511 184.047ZM164.286 200.586C123.716 196.822 82.5996 207.489 51.298 234.024C49.748 235.346 49.8677 235.523 51.6569 234.555C86.9531 215.642 129.724 209.52 169.623 212.955C169.713 212.961 169.8 212.921 169.854 212.848C169.907 212.776 169.92 212.681 169.888 212.596L164.989 201.102C164.864 200.812 164.595 200.614 164.286 200.586L164.286 200.586ZM555.681 234.102C557.73 235.174 557.881 234.956 556.133 233.446C525.768 207.208 484.059 197.135 443.707 200.508C443.322 200.539 443.057 200.732 442.911 201.086C439.582 208.822 437.912 212.69 437.902 212.69C437.788 212.95 437.876 213.07 438.167 213.049C477.77 209.473 520.073 215.501 555.681 234.102L555.681 234.102ZM192.701 205.803C192.648 205.655 192.525 205.544 192.374 205.506L184.275 203.429C184.096 203.383 183.907 203.447 183.792 203.592C183.677 203.737 183.659 203.936 183.745 204.1L189.409 215.189C189.47 215.315 189.585 215.406 189.721 215.439L195.822 216.766C195.991 216.807 196.169 216.75 196.284 216.619C196.399 216.488 196.431 216.304 196.368 216.141L192.701 205.803L192.701 205.803ZM423.796 204.662C424.264 203.746 423.999 203.413 423 203.663L417.242 205.131C416.117 205.414 415.202 206.231 414.793 207.317L411.297 216.344C411.11 216.813 411.266 217 411.765 216.907L417.04 215.845C417.827 215.687 418.5 215.175 418.865 214.455L423.796 204.662L423.796 204.662ZM235.472 204.178C235.421 204.137 235.349 204.129 235.293 204.157C235.237 204.185 235.208 204.244 235.222 204.303L235.394 205.365C235.498 205.98 235.81 206.448 236.33 206.771C237.932 207.802 239.534 208.848 241.136 209.91C241.344 210.056 241.453 209.999 241.464 209.738C241.464 209.665 241.427 209.629 241.354 209.629C241.323 209.629 241.292 209.613 241.261 209.582C239.305 207.666 237.375 205.865 235.472 204.178L235.472 204.178ZM372.865 204.975C373.582 203.663 373.39 203.507 372.287 204.506L366.561 209.723C366.53 209.753 366.524 209.8 366.546 209.838C366.568 209.875 366.613 209.892 366.654 209.879C369.588 208.838 371.658 207.203 372.865 204.975L372.865 204.975ZM212.659 213.362L216.513 221.248C216.794 221.8 217.225 222.186 217.808 222.404L223.691 224.528C224.398 224.778 224.632 224.549 224.393 223.841L222.505 218.344C222.203 217.479 221.636 216.855 220.804 216.469L213.096 212.909C212.523 212.648 212.378 212.799 212.659 213.362L212.659 213.362ZM388.734 223.06C391.839 222.232 393.68 216.423 394.991 213.768C395.428 212.883 395.204 212.659 394.32 213.096L386.674 216.891C386.174 217.141 385.787 217.583 385.597 218.125L383.631 223.935C383.382 224.705 383.621 224.924 384.349 224.591C385.712 223.976 387.173 223.466 388.734 223.06L388.734 223.06ZM45.7274 257.185C45.6754 257.174 45.6234 257.169 45.5714 257.169C45.4882 257.169 45.4778 257.2 45.5402 257.263C45.5714 257.304 45.6182 257.33 45.6806 257.341C45.7326 257.351 45.7846 257.346 45.8366 257.325C59.771 252.156 73.3776 247.986 88.3107 245.3C121.433 239.334 154.664 238.277 188.004 242.129C188.075 242.14 188.145 242.105 188.18 242.043C188.214 241.98 188.207 241.903 188.16 241.848L180.124 230.869C179.906 230.577 179.62 230.406 179.266 230.354C135.403 223.966 82.8493 231.056 45.8679 257.153C45.8262 257.185 45.7794 257.195 45.7274 257.185L45.7274 257.185ZM561.08 256.216C523.786 230.572 473.011 224.528 428.727 230.26C428.398 230.3 428.099 230.475 427.9 230.744L419.411 242.004C419.338 242.098 419.359 242.14 419.474 242.129C451.181 238.589 482.399 239.245 513.129 244.097C529.69 246.71 545.58 250.927 560.799 256.747C562.328 257.33 562.422 257.153 561.08 256.216L561.08 256.216ZM403.511 236.07C404.416 235.091 404.27 234.893 403.074 235.476C401.295 236.351 399.865 237.985 398.783 240.38C398.315 241.411 398.466 241.51 399.235 240.677L403.511 236.07L403.511 236.07ZM208.586 240.599L208.898 240.364C208.992 240.281 209.007 240.187 208.945 240.083C207.946 238.209 206.625 236.637 204.982 235.367C204.888 235.294 204.799 235.294 204.716 235.367L204.435 235.648C204.269 235.804 204.269 235.96 204.435 236.116C205.933 237.48 207.27 238.969 208.446 240.583C208.487 240.635 208.534 240.64 208.586 240.599L208.586 240.599ZM40.7185 277.488C38.9293 278.383 39.0125 278.628 40.9682 278.222C48.9262 276.535 57.2275 274.739 65.1544 273.724C116.751 267.05 168.364 266.498 219.993 272.068C220.7 272.141 220.768 271.964 220.195 271.537L207.619 262.026C206.778 261.39 205.794 260.962 204.747 260.777C173.051 255.321 141.042 254.556 108.721 258.481C85.2835 261.323 61.8931 266.836 40.7185 277.488L40.7185 277.488ZM566.572 277.144C555.915 271.428 542.527 266.93 531.588 264.369C489.405 254.498 446.729 253.332 403.558 260.87C401.997 261.136 400.655 261.573 399.423 262.588C395.782 265.577 392.037 268.388 388.188 271.022C387.564 271.438 387.626 271.61 388.375 271.537C430.443 266.925 473.068 266.462 516.25 270.147C533.643 271.626 550.365 274.099 566.416 277.566C567.446 277.784 567.498 277.644 566.572 277.144L566.572 277.144ZM570.286 295.276C557.226 291.762 543.588 289.295 530.215 287.811C479.148 282.178 429.299 282.506 380.667 288.795C369.12 290.284 358.01 292.512 347.337 295.479C345.849 295.885 345.88 296.088 347.43 296.088L570.177 296.088C572.289 296.088 572.325 295.818 570.286 295.276L570.286 295.276ZM77.9652 288.389C64.7018 289.919 50.9704 291.965 38.2063 295.573C36.9684 295.917 36.9944 296.088 38.2843 296.088L257.208 296.088C261.359 296.088 261.405 295.646 257.348 294.761C236.294 290.128 214.281 287.139 191.312 285.796C151.106 283.443 113.324 284.307 77.9652 288.389L77.9652 288.389ZM310.395 298.723C310.396 298.429 310.28 298.147 310.072 297.939C309.865 297.73 309.583 297.613 309.289 297.612L298.866 297.594C298.572 297.594 298.29 297.71 298.082 297.918C297.874 298.125 297.757 298.407 297.756 298.701L297.738 308.977C297.738 309.271 297.854 309.554 298.061 309.762C298.269 309.97 298.55 310.088 298.844 310.088L309.268 310.106C309.561 310.107 309.843 309.991 310.052 309.783C310.26 309.575 310.377 309.294 310.377 309L310.395 298.723L310.395 298.723ZM258.441 313.158C259.2 312.961 259.954 312.799 260.703 312.674C260.922 312.633 260.953 312.534 260.797 312.378C260.724 312.305 260.636 312.268 260.532 312.268C192.29 312.372 118.197 312.398 38.2531 312.346C36.7551 312.346 36.7291 312.534 38.1751 312.909C50.0237 316.001 62.304 318.271 75.0161 319.718C128.35 325.767 180.343 325.397 230.993 318.609C240.148 317.38 249.297 315.564 258.441 313.158L258.441 313.158ZM347.727 312.362C346.353 312.362 346.088 312.331 345.199 312.627C345.157 312.648 345.131 312.627 345.121 312.565C345.1 312.502 345.126 312.471 345.199 312.471C345.251 312.482 345.298 312.492 345.339 312.503C360.537 316.542 376.147 319.406 392.167 321.092C440.758 326.215 488.62 325.824 535.754 319.921C548.05 318.375 560.346 315.907 572.096 312.674C572.907 312.456 572.892 312.346 572.049 312.346C497.4 312.398 422.626 312.404 347.727 312.362L347.727 312.362ZM38.6432 329.807C51.2668 336.928 67.0892 342.129 80.7115 345.081C121.219 353.858 161.857 354.837 202.625 348.017C204.279 347.736 206.136 347.267 207.416 346.143C211.182 342.822 215.171 339.781 219.384 337.022C220.143 336.533 220.071 336.335 219.166 336.429C181.264 340.536 144.844 340.942 105.179 338.709C82.2199 337.418 60.0467 334.435 38.6588 329.76C38.5548 329.739 38.5496 329.755 38.6432 329.807L38.6432 329.807ZM527.953 344.956C540.982 342.082 554.76 337.35 567.072 331.056C567.529 330.817 567.503 330.749 566.994 330.853C541.237 336.174 513.664 339.339 484.277 340.349C452.247 341.452 420.769 340.385 389.842 337.147C389.197 337.074 389.129 337.236 389.639 337.631L401.826 347.033C402.266 347.371 402.78 347.597 403.324 347.689C446.058 354.8 487.601 353.889 527.953 344.956L527.953 344.956ZM293.721 353.702C291.256 363.989 289.342 374.723 287.979 385.906C283.579 421.951 282.845 457.606 284.546 493.621C285.794 520.035 289.347 545.893 295.204 571.194C295.401 572.016 295.583 572.016 295.75 571.194C296.436 567.914 295.875 564.712 295.875 561.339C295.885 492.496 295.885 423.648 295.875 354.795C295.875 352.125 296.358 349.61 295.781 346.939C295.542 345.857 295.323 345.862 295.126 346.955C294.73 349.214 294.262 351.463 293.721 353.702L293.721 353.702ZM313.226 568.242C322.167 529.245 324.18 488.482 323.634 447.08C323.239 417.011 320.68 388.805 315.957 362.463C315.125 357.851 314.168 353.265 313.086 348.704C312.462 346.08 312.15 346.117 312.15 348.814C312.191 422.612 312.202 496.562 312.181 570.663C312.181 570.808 312.233 570.933 312.337 571.037C312.368 571.069 312.399 571.11 312.43 571.162C312.722 571.662 312.873 571.62 312.883 571.037C312.893 570.142 313.008 569.21 313.226 568.242L313.226 568.242ZM557.662 352.983C514.346 368.289 465.568 371.506 420.223 366.43C420.19 366.423 420.157 366.437 420.14 366.465C420.122 366.493 420.124 366.529 420.145 366.555C422.756 370.137 425.502 373.88 428.384 377.784C428.56 378.013 428.789 378.149 429.07 378.19C473.463 384.094 524.847 377.55 562.203 351.531C563.327 350.75 563.269 350.641 562.032 351.203C560.596 351.869 559.14 352.463 557.662 352.983L557.662 352.983ZM46.7729 352.156C84.9246 377.691 133.562 383.875 178.626 378.268C179.026 378.218 179.381 378.015 179.609 377.706L187.443 366.93C187.567 366.753 187.521 366.675 187.302 366.696C151.985 369.746 120.221 368.799 92.0088 363.853C75.6246 360.99 60.6448 356.904 47.0694 351.594C45.2905 350.906 45.1917 351.094 46.7729 352.156L46.7729 352.156ZM372.896 360.168C373.312 361.198 373.962 361.99 374.846 362.541C375.356 362.843 375.439 362.755 375.096 362.276C374.534 361.464 373.863 360.714 373.083 360.027C372.833 359.808 372.771 359.855 372.896 360.168L372.896 360.168ZM210.146 365.649C210.531 365.035 210.485 364.999 210.006 365.54L203.53 372.802C202.802 373.614 202.943 373.812 203.952 373.396C206.948 372.178 208.477 368.289 210.146 365.649L210.146 365.649ZM402.606 372.474C405.154 374.359 405.409 374.088 403.37 371.662C401.935 369.965 400.286 368.299 398.424 366.665C398.185 366.456 398.107 366.503 398.19 366.805C398.211 366.878 398.247 366.935 398.299 366.977C398.663 367.248 398.949 367.591 399.157 368.008C400.218 370.08 401.368 371.569 402.606 372.474L402.606 372.474ZM549.08 377.691C514.752 393.48 475.866 398.743 438.37 395.464C438.204 395.453 438.152 395.526 438.214 395.682C441.439 403.47 443.093 407.427 443.176 407.552C443.291 407.749 443.457 407.859 443.675 407.88C459.633 409.389 475.638 408.572 491.689 405.428C516.79 400.534 539.073 389.784 558.536 373.177C558.619 373.104 558.63 373.016 558.567 372.912L558.349 372.599C558.328 372.568 558.302 372.563 558.271 372.584C555.452 374.468 552.388 376.171 549.08 377.691L549.08 377.691ZM169.311 395.464C129.568 399.04 86.7034 392.496 51.3605 373.755C49.8729 372.964 49.7689 373.12 51.0484 374.224C81.8194 400.758 123.482 411.518 163.99 407.88C164.396 407.848 164.676 407.64 164.833 407.255L169.592 395.854C169.706 395.562 169.613 395.432 169.311 395.464L169.311 395.464ZM216.731 386.437C216.613 386.481 216.517 386.571 216.466 386.686L212.487 395.104C212.402 395.284 212.438 395.497 212.578 395.638C212.719 395.778 212.932 395.815 213.111 395.729L221.569 391.543C221.678 391.489 221.762 391.394 221.803 391.278L224.112 384.734C224.169 384.566 224.125 384.379 223.999 384.254C223.874 384.128 223.688 384.084 223.519 384.141L216.731 386.437L216.731 386.437ZM394.695 395.432C394.874 395.518 395.087 395.481 395.227 395.341C395.368 395.2 395.404 394.987 395.319 394.808L391.293 386.53C391.239 386.42 391.143 386.336 391.028 386.296L384.49 383.953C384.321 383.897 384.135 383.94 384.009 384.066C383.884 384.192 383.84 384.378 383.897 384.547L386.112 391.153C386.153 391.269 386.237 391.364 386.346 391.419L394.695 395.432L394.695 395.432ZM329.923 568.617C338.037 552.765 343.514 535.648 346.697 518.187C353.563 480.627 353.953 442.114 347.68 404.475C347.316 402.268 346.374 400.284 344.856 398.525C341.735 394.901 338.843 391.028 336.18 386.905C336.044 386.697 335.987 386.718 336.008 386.968C340.627 430.499 341.074 473.989 337.35 517.438C335.821 535.315 333.262 552.343 329.673 568.523C329.67 568.583 329.707 568.639 329.764 568.66C329.821 568.681 329.885 568.664 329.923 568.617L329.923 568.617ZM277.634 567.398C277.53 567.992 277.691 568.445 278.117 568.757C274.58 553.212 272.001 536.882 270.378 519.765C266.196 475.65 266.518 431.978 271.345 388.748C271.439 387.905 271.257 387.842 270.799 388.561C268.302 392.402 265.587 396.031 262.654 399.446C261.333 400.977 260.511 402.757 260.188 404.787C253.354 448.257 254.566 489.961 263.824 529.9C266.831 542.915 271.434 555.414 277.634 567.398L277.634 567.398ZM183.448 404.256C183.35 404.441 183.369 404.666 183.497 404.831C183.625 404.996 183.838 405.071 184.041 405.022L191.999 403.116C192.171 403.076 192.311 402.953 192.374 402.788L196.056 392.559C196.118 392.383 196.084 392.188 195.966 392.044C195.848 391.9 195.663 391.829 195.479 391.856L189.471 392.871C189.304 392.897 189.159 393.001 189.081 393.152L183.448 404.256L183.448 404.256ZM415.463 402.616C415.517 402.772 415.647 402.89 415.807 402.929L423.78 404.881C423.963 404.925 424.155 404.859 424.272 404.712C424.39 404.564 424.411 404.362 424.326 404.194L418.803 393.199C418.737 393.061 418.609 392.963 418.459 392.934L412.374 391.762C412.203 391.729 412.028 391.791 411.915 391.923C411.802 392.056 411.768 392.239 411.828 392.402L415.463 402.616L415.463 402.616ZM235.3 404.631L240.449 399.524C241.146 398.837 241.058 398.707 240.184 399.134C237.594 400.394 235.82 402.127 234.863 404.334C234.499 405.167 234.645 405.266 235.3 404.631L235.3 404.631ZM549.954 399.462C520.026 418.422 484.199 426.402 448.575 424.481C448.484 424.48 448.396 424.519 448.336 424.589C448.276 424.658 448.249 424.75 448.263 424.84L450.541 435.851C450.598 436.092 450.809 436.265 451.056 436.273C489.442 437.876 522.522 425.757 550.297 399.915C551.816 398.509 551.702 398.358 549.954 399.462L549.954 399.462ZM58.195 400.243C84.8154 425.356 119.799 438.115 156.734 436.163C157.119 436.142 157.353 435.945 157.436 435.57L159.59 424.825C159.631 424.596 159.532 424.486 159.293 424.497C122.343 426.392 88.7632 418.156 58.5539 399.79C56.9727 398.821 56.853 398.972 58.195 400.243L58.195 400.243ZM367.684 399.649C369.089 401.055 370.68 402.648 372.303 403.772C373.25 404.449 373.416 404.293 372.802 403.304C371.772 401.659 370.15 400.326 367.934 399.305C367.216 398.972 367.133 399.087 367.684 399.649L367.684 399.649ZM205.465 415.766C205.303 415.824 205.18 415.959 205.138 416.126L203.249 423.997C203.204 424.192 203.275 424.396 203.432 424.52C203.59 424.644 203.804 424.665 203.983 424.575L214.952 418.984C215.087 418.914 215.184 418.788 215.218 418.64L216.528 412.565C216.567 412.383 216.504 412.195 216.366 412.073C216.227 411.95 216.033 411.911 215.857 411.971L205.465 415.766L205.465 415.766ZM403.932 424.419C404.1 424.503 404.302 424.482 404.45 424.365C404.597 424.247 404.663 424.055 404.619 423.872L402.809 416.016C402.77 415.856 402.652 415.727 402.497 415.673L392.104 411.8C391.941 411.74 391.758 411.773 391.626 411.887C391.493 412 391.432 412.175 391.465 412.346L392.775 418.515C392.806 418.656 392.897 418.777 393.025 418.843L403.932 424.419L403.932 424.419ZM351.347 561.745C377.109 524.45 383.709 474.505 377.967 429.12C377.915 428.693 377.717 428.354 377.374 428.104L366.311 419.983C366.186 419.89 366.134 419.926 366.155 420.093C371.133 464.759 367.965 513.564 353.297 555.638C352.6 557.627 351.778 559.548 350.832 561.401C350.738 561.578 350.78 561.719 350.957 561.823L350.972 561.839C351.118 561.922 351.243 561.891 351.347 561.745L351.347 561.745ZM257.036 561.823C249.505 541.499 244.553 521.17 242.181 500.836C239.05 474.057 238.91 447.2 241.76 420.264C241.762 420.223 241.74 420.184 241.703 420.164C241.667 420.145 241.622 420.147 241.588 420.171L230.525 428.229C230.296 428.396 230.166 428.615 230.135 428.885C224.05 473.536 231.04 524.747 256.911 561.885C257.13 562.208 257.172 562.187 257.036 561.823L257.036 561.823ZM174.195 433.399C174.157 433.568 174.21 433.745 174.334 433.865C174.458 433.986 174.636 434.034 174.803 433.992L185.18 431.431C185.371 431.386 185.517 431.233 185.555 431.041L187.287 421.498C187.322 421.332 187.271 421.16 187.151 421.04C187.032 420.92 186.859 420.869 186.694 420.905L176.988 422.701C176.79 422.733 176.63 422.88 176.582 423.076L174.195 433.399L174.195 433.399ZM422.36 431.025C422.397 431.23 422.549 431.395 422.751 431.447L432.878 433.883C433.054 433.924 433.239 433.872 433.368 433.746C433.498 433.619 433.554 433.436 433.517 433.258L431.208 422.966C431.161 422.759 430.996 422.599 430.787 422.56L421.143 420.811C420.969 420.776 420.79 420.831 420.664 420.956C420.539 421.082 420.484 421.262 420.519 421.436L422.36 431.025L422.36 431.025ZM200.254 444.487C197.086 484.906 207.494 526.746 234.395 557.06C235.061 557.809 235.16 557.736 234.691 556.841C215.826 520.78 209.366 478.893 212.862 438.615C212.871 438.525 212.83 438.436 212.756 438.384C212.681 438.332 212.584 438.325 212.503 438.365L201.159 443.222C200.597 443.451 200.295 443.873 200.254 444.487L200.254 444.487ZM407.053 443.254L395.366 438.303C395.311 438.281 395.249 438.289 395.201 438.324C395.154 438.359 395.127 438.416 395.132 438.475C398.564 478.971 392.401 521.545 373.192 557.044C372.381 558.543 372.516 558.642 373.598 557.341C399.86 525.824 411.391 485.515 407.552 443.941C407.521 443.618 407.355 443.389 407.053 443.254L407.053 443.254ZM398.533 550.703C397.992 551.578 398.075 551.64 398.783 550.891C424.852 523.237 437.236 490.06 435.936 451.359C435.927 451.074 435.722 450.83 435.437 450.766L424.342 448.501C424.228 448.48 424.176 448.527 424.186 448.642C425.856 485.281 417.617 519.952 398.533 550.703L398.533 550.703ZM171.948 451.5C170.481 489.404 183.401 524.45 209.803 551.437C209.818 551.442 209.834 551.44 209.847 551.43C209.859 551.421 209.867 551.406 209.866 551.39C190.626 521.014 181.888 485.515 183.698 449.095C183.719 448.741 183.552 448.6 183.198 448.673L172.525 450.828C172.206 450.892 171.969 451.167 171.948 451.5L171.948 451.5Z" id="Фигура" fill="#01256D" fill-rule="evenodd" stroke="none" />
  </g>
</svg>