<?xml version="1.0" encoding="utf-8"?>
<svg width="496px" height="96px" viewBox="0 0 496 96" version="1.1" xmlns:xlink="http://www.w3.org/1999/xlink" xmlns="http://www.w3.org/2000/svg">
  <defs>
    <path d="M0 0L496 0L496 96L0 96L0 0Z" id="path_1" />
    <path d="M0 0L96 0L96 96L0 96L0 0Z" id="path_2" />
    <path d="M0 0L96.0041 0L96.0041 96.0041L0 96.0041L0 0L0 0Z" id="path_3" />
    <clipPath id="clip_1">
      <use xlink:href="#path_1" />
    </clipPath>
    <clipPath id="clip_2">
      <use xlink:href="#path_2" />
    </clipPath>
    <clipPath id="mask_1">
      <use xlink:href="#path_3" />
    </clipPath>
  </defs>
  <g id="Фрейм 5" clip-path="url(#clip_1)">
    <path d="M0 0L496 0L496 96L0 96L0 0Z" id="Фрейм-5" fill="#000000" fill-opacity="0" fill-rule="evenodd" stroke="none" />
    <g id="айдентика 1" clip-path="url(#clip_2)" transform="translate(0 0.00048828125)">
      <path d="M0 0L96 0L96 96L0 96L0 0Z" id="айдентика-1" fill="none" fill-rule="evenodd" stroke="none" />
      <g id="Группа-масок">
        <path d="M0 0L96.0041 0L96.0041 96.0041L0 96.0041L0 0L0 0Z" id="path_1" fill="none" stroke="none" />
        <g clip-path="url(#mask_1)">
          <g id="айдентика-1">
            <path d="M0 0L96.0041 0L96.0041 96.0041L0 96.0041L0 0L0 0Z" id="айдентика-1" fill="none" fill-rule="evenodd" stroke="none" />
            <path d="M71.5058 24.6002C78.3866 24.4917 84.1841 26.739 88.8984 31.3423C92.3379 34.6994 94.5481 38.8522 95.5287 43.8009C95.6602 44.4634 95.7521 45.1193 95.8047 45.7688C95.8786 46.6837 96.056 47.5444 95.9894 48.4691C95.9173 49.4408 95.8154 50.368 95.6839 51.2508C94.8495 56.8915 92.3651 61.5943 88.2306 65.3592C83.6216 69.5563 78.0499 71.5892 71.5156 71.4576C71.4286 71.456 71.3858 71.4979 71.3876 71.5835C71.5254 77.0794 70.0135 81.9827 66.8515 86.2934C62.7663 91.8618 56.5845 95.2329 49.7693 95.81C49.0581 95.8708 48.5226 95.93 48.1629 95.9875C47.6971 96.0615 47.0886 95.8667 46.6131 95.837C38.4206 95.3216 31.3198 90.6904 27.3972 83.5537C25.4294 79.9696 24.4964 75.987 24.5982 71.6056C24.5999 71.5168 24.5572 71.4733 24.4701 71.4748C16.9191 71.5243 10.7536 68.8691 5.9737 63.5095C2.94804 60.1179 1.06399 56.0087 0.321537 51.1818C0.205734 50.4321 0.230373 49.6726 0.0776119 48.9352C0.00862331 48.5965 -0.0143723 48.2652 0.00862331 47.9414C0.0923947 46.807 0.217232 45.6857 0.383134 44.5777C1.20607 39.1055 3.92374 34.0722 8.09264 30.4373C12.6853 26.4341 18.1396 24.4917 24.4553 24.61C24.5407 24.6117 24.5826 24.5689 24.581 24.4818C24.4694 17.5341 26.773 11.6871 31.4922 6.94075C35.1486 3.26468 39.7133 1.03455 45.1865 0.250344C45.9552 0.139372 46.7264 0.173898 47.4854 0.0407298C47.7925 -0.0118792 48.1004 -0.0135236 48.4093 0.0357967C49.2839 0.178829 50.1784 0.156635 51.0555 0.292267C58.2582 1.41843 63.8037 4.95805 67.6917 10.9111C70.2739 14.8683 71.5025 19.3877 71.3776 24.4694C71.3743 24.5582 71.4171 24.6018 71.5058 24.6002L71.5058 24.6002L71.5058 24.6002ZM46.3987 6.85193C46.0652 8.18854 45.823 9.40676 45.6719 10.5066C44.3932 19.7666 44.4153 29.3991 46.0464 38.6937C46.2017 39.579 46.4998 40.4224 46.6008 41.2952C46.6204 41.4565 46.6509 41.4588 46.6919 41.3027C46.8053 40.8613 46.7363 40.41 46.7363 39.9637C46.7232 28.2153 46.7191 16.9554 46.724 6.18363C46.724 5.27612 46.6706 5.27284 46.5639 6.17378C46.5621 6.1935 46.5072 6.41955 46.3987 6.85193L46.3987 6.85193L46.3987 6.85193ZM50.9124 17.0122C50.6807 13.1109 50.2102 9.45622 49.3601 5.89771C49.3421 5.81879 49.3256 5.81961 49.3108 5.90017C49.2295 6.36873 49.2959 6.82741 49.2959 7.30336C49.2944 18.5173 49.2936 29.6977 49.2936 40.8441C49.2936 41.2684 49.3411 41.2741 49.4365 40.8615C50.013 38.3576 50.4253 35.7459 50.6733 33.0267C51.1546 27.7659 51.2343 22.4277 50.9124 17.0122L50.9124 17.0122L50.9124 17.0122ZM43.8782 6.32659C43.8864 6.31344 43.8923 6.29946 43.8956 6.28467C43.9185 6.17616 43.9054 6.17205 43.8561 6.27234C42.8656 8.25258 42.1215 10.3117 41.6188 12.4942C40.1782 18.7448 40.0091 25.3136 41.1113 32.2003C41.1623 32.5226 41.2937 32.8054 41.5056 33.0488C41.9407 33.5502 42.353 34.0919 42.7424 34.6739C42.8245 34.7972 42.8582 34.7849 42.8435 34.6369C41.9679 26.6798 42.0287 18.7735 43.0257 10.9184C43.1604 9.85962 43.4331 8.35615 43.8438 6.40796C43.8487 6.37837 43.8602 6.35124 43.8782 6.32659L43.8782 6.32659L43.8782 6.32659ZM54.6727 13.8063C54.1627 11.1873 53.3471 8.6251 52.1596 6.28482C52.0692 6.1089 52.0446 6.11795 52.0857 6.31195C52.6277 8.87663 53.0138 11.4627 53.2437 14.0701C53.8646 21.1082 53.7956 28.0856 53.0367 35.002C53.0269 35.0858 53.0441 35.0917 53.0885 35.0192C53.5352 34.2876 54.028 33.6079 54.5668 32.9799C54.7179 32.8023 54.814 32.5918 54.8551 32.3485C55.9113 26.0338 55.8505 19.8531 54.6727 13.8063L54.6727 13.8063L54.6727 13.8063ZM40.6581 7.17022C40.686 7.09953 40.7204 7.03048 40.7615 6.96307C40.7681 6.94992 40.764 6.94253 40.7492 6.94088C40.741 6.93923 40.7335 6.94171 40.7271 6.94827C40.7171 6.9565 40.7081 6.96635 40.6999 6.97787C38.6565 10.0111 37.2973 13.3641 36.6223 17.0368C35.9273 20.815 35.8337 24.5781 36.3414 28.3265C36.3478 28.3757 36.3717 28.4144 36.4127 28.4424L38.1498 29.7298C38.1585 29.7353 38.1695 29.7356 38.1784 29.7304C38.1874 29.7252 38.1924 29.7154 38.1916 29.705C37.6028 24.408 37.7704 19.0419 38.7239 13.8261C39.1411 11.5392 39.7858 9.32062 40.6581 7.17022L40.6581 7.17022L40.6581 7.17022ZM57.8087 29.7938L59.5607 28.4892C59.6197 28.4448 59.6541 28.3856 59.6641 28.3116C60.3819 22.8205 59.9104 17.641 58.2498 12.773C57.5976 10.8643 56.7099 9.09037 55.5863 7.45126C55.399 7.17672 55.3679 7.19316 55.4926 7.50059C56.0478 8.87994 56.484 10.247 56.801 11.6016C58.171 17.4495 58.5011 23.5102 57.7915 29.7838C57.7898 29.8003 57.7956 29.8036 57.8087 29.7938L57.8087 29.7938L57.8087 29.7938ZM37.2819 7.66822C32.8271 12.6299 31.031 19.3721 31.6495 25.9812C31.6544 26.0238 31.6757 26.0535 31.7135 26.0699L33.5614 26.8541C33.6009 26.8722 33.619 26.8591 33.6157 26.8146C33.3102 23.4197 33.4859 19.9738 34.1429 16.4769C34.7359 13.3056 35.7846 10.3587 37.2893 7.63617C37.2959 7.62466 37.3057 7.62136 37.319 7.6263C37.6869 7.79563 37.6828 7.80714 37.3067 7.66082C37.2967 7.65753 37.2885 7.65999 37.2819 7.66822L37.2819 7.66822L37.2819 7.66822ZM59.768 9.70039C61.2218 13.0263 62.1038 16.5971 62.4143 20.4129C62.59 22.5748 62.5834 24.6644 62.3945 26.6816C62.3781 26.8608 62.4487 26.9077 62.6064 26.8222C63.0862 26.5641 63.5846 26.3529 64.1021 26.1885C64.2429 26.1432 64.3442 26.0206 64.3607 25.8752C64.392 25.6039 64.4149 25.3139 64.4297 25.0047C64.7181 18.7952 63.0623 12.7484 59.0042 8.02842C58.8072 7.79824 58.7849 7.81386 58.9378 8.07527C59.2564 8.61944 59.5332 9.16116 59.768 9.70039L59.768 9.70039L59.768 9.70039ZM33.195 8.79781C29.0039 13.0937 26.8235 18.805 27.1806 24.8296C27.1824 24.8691 27.202 24.8921 27.2399 24.8988L28.9695 25.2316C29.0057 25.2398 29.0229 25.225 29.0211 25.1872C28.7025 19.226 30.0815 13.7751 33.158 8.83479C33.1646 8.82494 33.1729 8.81754 33.1826 8.81261C33.1909 8.80933 33.195 8.80438 33.195 8.79781L33.195 8.79781L33.195 8.79781ZM64.3113 11.4979C66.353 15.8037 67.2352 20.374 66.9576 25.2091C66.9559 25.2486 66.974 25.2642 67.0118 25.256L68.7537 24.9034C68.7981 24.8952 68.821 24.8681 68.8227 24.822C69.0855 18.7473 67.1603 13.4971 63.0473 9.07134C63.0276 9.04833 63.0055 9.04669 62.9809 9.06641L62.9783 9.06641C62.9586 9.08285 62.9562 9.10093 62.9709 9.12067C63.467 9.86705 63.9139 10.6595 64.3113 11.4979L64.3113 11.4979L64.3113 11.4979ZM24.7682 27.207C19.0494 26.8616 13.3554 28.9134 9.23578 32.8444C9.14461 32.9306 9.03375 32.9873 8.9475 33.0785C8.86866 33.1608 8.8777 33.1715 8.97462 33.1106C13.9122 30.0708 19.3081 28.7211 25.1624 29.0613C25.1778 29.0626 25.1928 29.0563 25.2029 29.0441C25.2131 29.032 25.2172 29.0156 25.2141 28.9998L24.8716 27.2957C24.8601 27.2398 24.8256 27.2101 24.7682 27.207L24.7682 27.207L24.7682 27.207ZM84.5397 31.7075C85.4447 32.1382 86.2931 32.6272 87.085 33.1747C87.0981 33.1846 87.1094 33.1829 87.1194 33.1698L87.1194 33.1674C87.1276 33.1575 87.1276 33.1485 87.1194 33.1403C86.4344 32.4777 85.7602 31.8982 85.0965 31.4016C81.0097 28.3372 76.3728 26.9357 71.1854 27.197C71.1443 27.2003 71.1197 27.2216 71.1115 27.2611L70.7715 29.0144C70.7649 29.0457 70.7772 29.0606 70.8085 29.059C75.6655 28.7762 80.2426 29.659 84.5397 31.7075L84.5397 31.7075L84.5397 31.7075ZM27.641 27.5719C27.6156 27.5662 27.5889 27.574 27.5704 27.5924C27.552 27.6109 27.5442 27.6376 27.5499 27.6632L27.9317 29.2785C27.9388 29.3072 27.9619 29.3293 27.9909 29.3352L29.4963 29.636C29.5205 29.6403 29.5451 29.6325 29.5627 29.6155C29.5802 29.5984 29.5886 29.5739 29.5851 29.5496L29.3263 28.0158C29.3214 27.9858 29.2991 27.9616 29.2696 27.9542L27.641 27.5719L27.641 27.5719L27.641 27.5719ZM67.9947 29.362C68.0259 29.3571 68.0512 29.3337 68.0588 29.3029L68.4652 27.6604C68.4709 27.6344 68.4629 27.6071 68.4439 27.5881C68.425 27.5692 68.3978 27.5611 68.3716 27.5668L66.7356 27.9688C66.7056 27.9759 66.6824 28.0001 66.6765 28.0304L66.3808 29.5298C66.3756 29.5554 66.3833 29.5821 66.4015 29.6009C66.4198 29.6197 66.4461 29.6281 66.472 29.6235L67.9947 29.362L67.9947 29.362L67.9947 29.362ZM32.2071 29.0241C32.1805 29.0108 32.1486 29.0142 32.1254 29.0326C32.1022 29.0511 32.0918 29.0814 32.0987 29.1105L32.4043 30.3682C32.4098 30.3928 32.4273 30.4132 32.451 30.4223L34.1068 31.0512C34.1328 31.0618 34.1627 31.0571 34.1843 31.0391C34.2059 31.0209 34.2159 30.9925 34.2102 30.9649L34.0082 29.981C34.0041 29.9578 33.9896 29.9377 33.9688 29.9267L32.2071 29.0241L32.2071 29.0241L32.2071 29.0241ZM63.7148 29.0614L62.0739 29.9516C62.0278 29.978 61.999 30.0175 61.9875 30.0701L61.7683 31.0934C61.7667 31.1007 61.7694 31.1081 61.7751 31.1128C61.7808 31.1174 61.7887 31.1185 61.7953 31.1157L63.3304 30.5065C63.4847 30.4457 63.5809 30.3347 63.6186 30.1736L63.86 29.1749C63.8962 29.027 63.8477 28.9891 63.7148 29.0614L63.7148 29.0614L63.7148 29.0614ZM25.9409 31.6729C19.5348 31.0786 13.0425 32.7629 8.0999 36.9529C7.85516 37.1616 7.87406 37.1895 8.15657 37.0367C13.7299 34.0503 20.4835 33.0836 26.7836 33.626C26.7978 33.627 26.8115 33.6207 26.8201 33.6091C26.8284 33.5978 26.8305 33.5828 26.8254 33.5693L26.0519 31.7544C26.0321 31.7086 25.9897 31.6774 25.9409 31.6729L25.9409 31.6729L25.9409 31.6729ZM87.7428 36.9651C88.0664 37.1343 88.0902 37.0999 87.8142 36.8615C83.0195 32.7185 76.4336 31.1279 70.062 31.6605C70.0012 31.6654 69.9593 31.6959 69.9363 31.7518C69.4106 32.9733 69.1469 33.5841 69.1454 33.5841C69.1273 33.6251 69.1412 33.6441 69.1872 33.6408C75.4406 33.0761 82.1203 34.0279 87.7428 36.9651L87.7428 36.9651L87.7428 36.9651ZM30.4275 32.4965C30.4192 32.4732 30.3997 32.4556 30.3759 32.4496L29.0971 32.1217C29.0688 32.1144 29.039 32.1245 29.0208 32.1474C29.0026 32.1703 28.9998 32.2017 29.0134 32.2276L29.9077 33.9786C29.9174 33.9985 29.9355 34.0129 29.957 34.0181L30.9204 34.2276C30.947 34.2341 30.9751 34.2251 30.9933 34.2044C31.0115 34.1837 31.0165 34.1546 31.0066 34.1289L30.4275 32.4965L30.4275 32.4965L30.4275 32.4965ZM66.9182 32.3165C66.9921 32.1718 66.9502 32.1192 66.7925 32.1587L65.8833 32.3905C65.7056 32.4352 65.5611 32.5642 65.4966 32.7357L64.9445 34.1611C64.915 34.2351 64.9396 34.2647 65.0184 34.25L65.8514 34.0823C65.9756 34.0573 66.0819 33.9765 66.1395 33.8628L66.9182 32.3165L66.9182 32.3165L66.9182 32.3165ZM37.1814 32.2399C37.1733 32.2335 37.162 32.2322 37.1531 32.2366C37.1443 32.241 37.1397 32.2504 37.1419 32.2597L37.1691 32.4274C37.1855 32.5245 37.2348 32.5984 37.3169 32.6494C37.5698 32.8122 37.8228 32.9773 38.0757 33.145C38.1086 33.1681 38.1258 33.1591 38.1275 33.1179C38.1275 33.1063 38.1217 33.1007 38.1102 33.1007C38.1053 33.1007 38.1004 33.0981 38.0955 33.0932C37.7866 32.7907 37.4819 32.5063 37.1814 32.2399L37.1814 32.2399L37.1814 32.2399ZM58.8762 32.366C58.9894 32.1589 58.9591 32.1342 58.7849 32.292L57.8808 33.1157C57.8759 33.1205 57.8749 33.1279 57.8784 33.1339C57.8819 33.1397 57.889 33.1424 57.8955 33.1404C58.3587 32.976 58.6856 32.7178 58.8762 32.366L58.8762 32.366L58.8762 32.366ZM33.579 33.6903L34.1875 34.9356C34.2319 35.0227 34.3 35.0837 34.392 35.1181L35.3209 35.4535C35.4326 35.4929 35.4695 35.4568 35.4318 35.345L35.1337 34.477C35.086 34.3404 34.9965 34.2419 34.8651 34.1809L33.648 33.6188C33.5575 33.5776 33.5346 33.6014 33.579 33.6903L33.579 33.6903L33.579 33.6903ZM61.3821 35.2216C61.8724 35.0908 62.1631 34.1736 62.3701 33.7543C62.4391 33.6146 62.4038 33.5792 62.2642 33.6482L61.0569 34.2475C60.9779 34.2869 60.9168 34.3567 60.8868 34.4423L60.5764 35.3597C60.537 35.4813 60.5748 35.5159 60.6897 35.4633C60.905 35.3662 61.1357 35.2857 61.3821 35.2216L61.3821 35.2216L61.3821 35.2216ZM7.2204 40.6097C7.21219 40.6079 7.20398 40.6072 7.19577 40.6072C7.18263 40.6072 7.18099 40.612 7.19084 40.622C7.19577 40.6285 7.20316 40.6326 7.21301 40.6343C7.22122 40.6359 7.22943 40.6351 7.23764 40.6318C9.43791 39.8156 11.5864 39.1571 13.9444 38.733C19.1744 37.791 24.4216 37.6241 29.6861 38.2323C29.6973 38.2341 29.7084 38.2285 29.7139 38.2187C29.7192 38.2088 29.7181 38.1966 29.7107 38.1879L28.4418 36.4543C28.4074 36.4082 28.3622 36.3812 28.3063 36.373C21.3803 35.3643 13.082 36.4839 7.24259 40.6046C7.236 40.6097 7.22861 40.6113 7.2204 40.6097L7.2204 40.6097L7.2204 40.6097ZM88.5948 40.4567C82.706 36.4074 74.6886 35.4531 67.6961 36.3582C67.6441 36.3645 67.5969 36.3921 67.5655 36.4346L66.2251 38.2126C66.2135 38.2274 66.2169 38.2341 66.235 38.2323C71.2416 37.6733 76.171 37.7769 81.0233 38.5431C83.6383 38.9557 86.1473 39.6215 88.5504 40.5405C88.7919 40.6326 88.8067 40.6046 88.5948 40.4567L88.5948 40.4567L88.5948 40.4567ZM63.7153 37.2759C63.8582 37.1213 63.8351 37.09 63.6463 37.1821C63.3654 37.3202 63.1396 37.5783 62.9687 37.9564C62.8948 38.1192 62.9187 38.1349 63.0401 38.0033L63.7153 37.2759L63.7153 37.2759L63.7153 37.2759ZM32.9362 37.9909L32.9854 37.9538C33.0003 37.9407 33.0026 37.9259 32.9928 37.9094C32.8351 37.6135 32.6265 37.3653 32.3671 37.1648C32.3522 37.1533 32.3382 37.1533 32.3251 37.1648L32.2807 37.2092C32.2545 37.2338 32.2545 37.2584 32.2807 37.2831C32.5172 37.4984 32.7284 37.7335 32.9141 37.9884C32.9205 37.9966 32.9279 37.9974 32.9362 37.9909L32.9362 37.9909L32.9362 37.9909ZM6.42924 43.8155C6.14672 43.9569 6.15986 43.9955 6.46867 43.9314C7.72525 43.6651 9.03603 43.3815 10.2877 43.2212C18.4349 42.1674 26.5846 42.0802 34.7369 42.9597C34.8486 42.9712 34.8593 42.9433 34.7688 42.8759L32.7831 41.3741C32.6503 41.2736 32.4949 41.2061 32.3296 41.1768C27.3247 40.3153 22.2705 40.1945 17.1669 40.8143C13.4661 41.2631 9.77274 42.1336 6.42924 43.8155L6.42924 43.8155L6.42924 43.8155ZM89.4627 43.7612C87.78 42.8587 85.666 42.1484 83.9387 41.744C77.2779 40.1854 70.5393 40.0013 63.7226 41.1916C63.4761 41.2336 63.2642 41.3026 63.0697 41.4628C62.4947 41.9348 61.9034 42.3787 61.2956 42.7946C61.1971 42.8603 61.2069 42.8874 61.3252 42.8759C67.9678 42.1476 74.6983 42.0745 81.5168 42.6564C84.2632 42.8899 86.9036 43.2804 89.4381 43.8279C89.6007 43.8623 89.6089 43.8402 89.4627 43.7612L89.4627 43.7612L89.4627 43.7612ZM90.0494 46.6247C87.9872 46.0698 85.8337 45.6803 83.7221 45.4459C75.6586 44.5565 67.7873 44.6083 60.1083 45.6013C58.285 45.8364 56.5307 46.1882 54.8454 46.6567C54.6105 46.7208 54.6154 46.7529 54.8601 46.7529L90.0322 46.7529C90.3657 46.7529 90.3714 46.7103 90.0494 46.6247L90.0494 46.6247L90.0494 46.6247ZM12.3108 45.537C10.2165 45.7786 8.0483 46.1016 6.03283 46.6714C5.83737 46.7257 5.84147 46.7527 6.04515 46.7527L40.6135 46.7527C41.269 46.7527 41.2762 46.6829 40.6356 46.5431C37.3112 45.8116 33.8353 45.3396 30.2084 45.1275C23.8599 44.756 17.894 44.8924 12.3108 45.537L12.3108 45.537L12.3108 45.537ZM49.0116 47.1689C49.0117 47.1225 48.9934 47.078 48.9606 47.0452C48.9279 47.0121 48.8834 46.9937 48.8369 46.9935L47.1911 46.9907C47.1447 46.9907 47.1002 47.009 47.0673 47.0418C47.0345 47.0745 47.016 47.119 47.0159 47.1655L47.013 48.7881C47.013 48.8345 47.0313 48.8792 47.064 48.912C47.0969 48.9449 47.1412 48.9635 47.1877 48.9635L48.8336 48.9663C48.8799 48.9665 48.9244 48.9482 48.9574 48.9153C48.9903 48.8825 49.0087 48.8381 49.0087 48.7917L49.0116 47.1689L49.0116 47.1689L49.0116 47.1689ZM40.8082 49.448C40.9281 49.4169 41.0471 49.3913 41.1654 49.3716C41.2 49.3651 41.2049 49.3495 41.1802 49.3249C41.1687 49.3133 41.1548 49.3075 41.1384 49.3075C30.3629 49.3239 18.6635 49.328 6.04022 49.3198C5.80368 49.3198 5.79957 49.3495 6.0279 49.4087C7.89881 49.8969 9.83789 50.2554 11.8451 50.4839C20.2666 51.439 28.4764 51.3806 36.4741 50.3088C37.9197 50.1147 39.3644 49.8279 40.8082 49.448L40.8082 49.448L40.8082 49.448ZM54.9065 49.3223C54.6896 49.3223 54.6477 49.3174 54.5074 49.3641C54.5007 49.3674 54.4966 49.3641 54.4951 49.3543C54.4917 49.3444 54.4958 49.3395 54.5074 49.3395C54.5156 49.3412 54.523 49.3428 54.5295 49.3445C56.9293 49.9823 59.3941 50.4345 61.9237 50.7008C69.5963 51.5097 77.1538 51.448 84.5963 50.5159C86.5378 50.2717 88.4794 49.882 90.3347 49.3716C90.4628 49.3371 90.4604 49.3198 90.3273 49.3198C78.5401 49.328 66.7332 49.3289 54.9065 49.3223L54.9065 49.3223L54.9065 49.3223ZM6.10168 52.0771C8.09497 53.2015 10.5933 54.0227 12.7443 54.4888C19.1405 55.8747 25.5573 56.0293 31.9946 54.9524C32.2558 54.9081 32.549 54.834 32.7512 54.6565C33.3458 54.1321 33.9757 53.652 34.6409 53.2163C34.7608 53.1391 34.7494 53.1078 34.6065 53.1227C28.6217 53.7712 22.8709 53.8353 16.6078 53.4827C12.9825 53.2788 9.48133 52.8078 6.10415 52.0696C6.08772 52.0663 6.0869 52.0688 6.10168 52.0771L6.10168 52.0771L6.10168 52.0771ZM83.3648 54.4692C85.4221 54.0153 87.5976 53.2682 89.5417 52.2743C89.6139 52.2366 89.6098 52.2258 89.5294 52.2423C85.4623 53.0825 81.1085 53.5822 76.4683 53.7417C71.4107 53.9159 66.4402 53.7474 61.5568 53.2361C61.455 53.2246 61.4442 53.2502 61.5248 53.3125L63.4491 54.7971C63.5186 54.8505 63.5998 54.8862 63.6857 54.9007C70.4334 56.0235 76.9931 55.8797 83.3648 54.4692L83.3648 54.4692L83.3648 54.4692ZM46.3789 55.8498C45.9897 57.4742 45.6875 59.1691 45.4723 60.9349C44.7775 66.6265 44.6616 72.2564 44.9302 77.9433C45.1272 82.1141 45.6883 86.1971 46.6131 90.1922C46.6442 90.322 46.6729 90.322 46.6993 90.1922C46.8076 89.6742 46.719 89.1686 46.719 88.636C46.7206 77.7656 46.7206 66.8944 46.719 56.0224C46.719 55.6008 46.7953 55.2037 46.7042 54.7819C46.6665 54.6111 46.6319 54.6119 46.6008 54.7845C46.5382 55.1412 46.4643 55.4963 46.3789 55.8498L46.3789 55.8498L46.3789 55.8498ZM49.459 89.7261C50.8708 83.5684 51.1887 77.1319 51.1024 70.5945C51.0401 65.8465 50.636 61.3928 49.8902 57.2333C49.7589 56.5051 49.6077 55.7809 49.4369 55.0607C49.3384 54.6464 49.2891 54.6523 49.2891 55.0781C49.2956 66.7309 49.2973 78.4077 49.294 90.1084C49.294 90.1313 49.3022 90.151 49.3186 90.1675C49.3235 90.1725 49.3284 90.179 49.3333 90.1872C49.3794 90.2661 49.4033 90.2595 49.4048 90.1675C49.4064 90.0261 49.4246 89.879 49.459 89.7261L49.459 89.7261L49.459 89.7261ZM88.0556 55.7366C81.216 58.1534 73.5139 58.6614 66.3538 57.8599C66.3486 57.8588 66.3434 57.861 66.3407 57.8654C66.3379 57.8698 66.3382 57.8755 66.3415 57.8796C66.7538 58.4452 67.1874 59.0362 67.6425 59.6527C67.6702 59.6888 67.7064 59.7103 67.7508 59.7168C74.7605 60.649 82.8741 59.6157 88.7727 55.5073C88.9502 55.384 88.941 55.3668 88.7457 55.4555C88.5189 55.5607 88.289 55.6545 88.0556 55.7366L88.0556 55.7366L88.0556 55.7366ZM7.38527 55.6059C13.4095 59.6379 21.0894 60.6144 28.2051 59.729C28.2682 59.7211 28.3243 59.6891 28.3603 59.6403L29.5973 57.9387C29.6169 57.9108 29.6096 57.8985 29.575 57.9018C23.9984 58.3834 18.9828 58.2338 14.5281 57.4529C11.941 57.0008 9.57566 56.3556 7.43209 55.5171C7.1512 55.4085 7.1356 55.4382 7.38527 55.6059L7.38527 55.6059L7.38527 55.6059ZM58.8807 56.871C58.9464 57.0336 59.0491 57.1587 59.1886 57.2457C59.2692 57.2934 59.2823 57.2795 59.2281 57.2038C59.1394 57.0756 59.0334 56.9572 58.9103 56.8487C58.8708 56.8141 58.861 56.8216 58.8807 56.871L58.8807 56.871L58.8807 56.871ZM33.1825 57.7365C33.2433 57.6396 33.2361 57.6339 33.1604 57.7193L32.1378 58.866C32.0229 58.9942 32.0452 59.0255 32.2045 58.9598C32.6776 58.7675 32.919 58.1534 33.1825 57.7365L33.1825 57.7365L33.1825 57.7365ZM63.5722 58.8142C63.9746 59.1118 64.0148 59.069 63.6929 58.686C63.4663 58.418 63.2059 58.1549 62.9119 57.8969C62.8741 57.8639 62.8618 57.8713 62.8749 57.919C62.8782 57.9305 62.8839 57.9395 62.8921 57.9462C62.9496 57.989 62.9948 58.0431 63.0276 58.109C63.1951 58.4361 63.3767 58.6713 63.5722 58.8142L63.5722 58.8142L63.5722 58.8142ZM86.701 59.6378C81.2806 62.1309 75.1404 62.9619 69.2197 62.4442C69.1935 62.4425 69.1853 62.454 69.1951 62.4786C69.7043 63.7083 69.9655 64.3332 69.9786 64.3529C69.9968 64.384 70.023 64.4014 70.0574 64.4047C72.5772 64.643 75.1044 64.514 77.6389 64.0175C81.6024 63.2447 85.1209 61.5473 88.1941 58.925C88.2072 58.9135 88.209 58.8996 88.199 58.8832L88.1646 58.8338C88.1613 58.8289 88.1572 58.8281 88.1523 58.8314C87.7072 59.1289 87.2233 59.3978 86.701 59.6378L86.701 59.6378L86.701 59.6378ZM26.7348 62.4444C20.4593 63.0091 13.691 61.9758 8.11026 59.0165C7.87536 58.8916 7.85894 58.9163 8.06098 59.0906C12.9198 63.2803 19.4984 64.9794 25.8946 64.4049C25.9587 64.3999 26.0029 64.367 26.0277 64.3062L26.7792 62.506C26.7972 62.4599 26.7825 62.4394 26.7348 62.4444L26.7348 62.4444L26.7348 62.4444ZM34.2221 61.019C34.2035 61.0259 34.1883 61.0401 34.1803 61.0583L33.552 62.3875C33.5385 62.4159 33.5442 62.4496 33.5663 62.4718C33.5886 62.4939 33.6222 62.4998 33.6505 62.4862L34.986 61.8252C35.0032 61.8167 35.0165 61.8017 35.023 61.7834L35.3876 60.7501C35.3966 60.7236 35.3896 60.694 35.3697 60.6743C35.35 60.6544 35.3206 60.6474 35.2939 60.6564L34.2221 61.019L34.2221 61.019L34.2221 61.019ZM62.3229 62.4394C62.3511 62.4529 62.3848 62.4471 62.4069 62.425C62.4291 62.4027 62.4348 62.3691 62.4214 62.3408L61.7857 61.0337C61.7772 61.0163 61.762 61.0031 61.7438 60.9968L60.7115 60.6268C60.6848 60.618 60.6554 60.6248 60.6355 60.6446C60.6158 60.6645 60.6088 60.6939 60.6179 60.7206L60.9676 61.7637C60.9741 61.782 60.9873 61.797 61.0046 61.8057L62.3229 62.4394L62.3229 62.4394L62.3229 62.4394ZM52.0951 89.7855C53.3763 87.2824 54.2411 84.5796 54.7437 81.8225C55.8279 75.8917 55.8895 69.8105 54.8989 63.8672C54.8415 63.5187 54.6927 63.2054 54.453 62.9277C53.9602 62.3554 53.5036 61.7439 53.0831 61.0929C53.0616 61.06 53.0526 61.0633 53.0559 61.1028C53.7853 67.9764 53.8559 74.8436 53.2678 81.7042C53.0264 84.527 52.6223 87.2158 52.0556 89.7706C52.0551 89.7801 52.061 89.7889 52.07 89.7923C52.079 89.7956 52.0891 89.7929 52.0951 89.7855L52.0951 89.7855L52.0951 89.7855ZM43.839 89.593C43.8226 89.6868 43.848 89.7583 43.9152 89.8076C43.3567 87.353 42.9495 84.7745 42.6932 82.0717C42.0329 75.1058 42.0837 68.21 42.8459 61.3839C42.8608 61.2508 42.832 61.2408 42.7597 61.3544C42.3654 61.9608 41.9367 62.5339 41.4736 63.0731C41.265 63.3149 41.1352 63.5959 41.0842 63.9165C40.0051 70.7804 40.1965 77.3656 41.6584 83.672C42.1332 85.7271 42.86 87.7007 43.839 89.593L43.839 89.593L43.839 89.593ZM28.9664 63.8324C28.9509 63.8616 28.9539 63.8971 28.9741 63.9232C28.9943 63.9493 29.028 63.9611 29.06 63.9534L30.3166 63.6524C30.3437 63.6461 30.3659 63.6267 30.3758 63.6006L30.9572 61.9854C30.967 61.9576 30.9616 61.9269 30.943 61.9041C30.9243 61.8814 30.8951 61.8702 30.8661 61.8744L29.9174 62.0347C29.891 62.0388 29.8681 62.0552 29.8558 62.0791L28.9664 63.8324L28.9664 63.8324L28.9664 63.8324ZM65.6019 63.5736C65.6104 63.5983 65.631 63.6169 65.6562 63.6231L66.9152 63.9313C66.9441 63.9382 66.9744 63.9278 66.9929 63.9046C67.0115 63.8812 67.0148 63.8493 67.0014 63.8228L66.1293 62.0867C66.1189 62.0649 66.0987 62.0494 66.075 62.0448L65.1142 61.8598C65.0872 61.8546 65.0595 61.8643 65.0417 61.8852C65.0238 61.9062 65.0185 61.9351 65.0279 61.9608L65.6019 63.5736L65.6019 63.5736L65.6019 63.5736ZM37.1546 63.8917L37.9676 63.0852C38.0777 62.9768 38.0638 62.9562 37.9258 63.0237C37.5168 63.2226 37.2367 63.4963 37.0856 63.8448C37.0281 63.9763 37.0512 63.9919 37.1546 63.8917L37.1546 63.8917L37.1546 63.8917ZM86.8383 63.0757C82.1127 66.0696 76.4555 67.3296 70.8304 67.0263C70.8161 67.0261 70.8022 67.0323 70.7927 67.0433C70.7832 67.0542 70.779 67.0688 70.7812 67.083L71.1409 68.8216C71.1499 68.8597 71.1832 68.887 71.2222 68.8883C77.2834 69.1414 82.5068 67.2278 86.8925 63.1473C87.1323 62.9253 87.1143 62.9014 86.8383 63.0757L86.8383 63.0757L86.8383 63.0757ZM9.18893 63.199C13.3923 67.1644 18.9163 69.179 24.7484 68.8708C24.8092 68.8675 24.8461 68.8364 24.8592 68.7772L25.1994 67.0805C25.2058 67.0444 25.1902 67.027 25.1525 67.0287C19.318 67.3279 14.0157 66.0275 9.24561 63.1275C8.99593 62.9744 8.97703 62.9983 9.18893 63.199L9.18893 63.199L9.18893 63.199ZM58.0578 63.105C58.2796 63.327 58.5309 63.5785 58.7871 63.756C58.9367 63.8629 58.9629 63.8382 58.8659 63.6821C58.7033 63.4223 58.4472 63.2119 58.0973 63.0506C57.9839 62.9981 57.9708 63.0162 58.0578 63.105L58.0578 63.105L58.0578 63.105ZM32.4436 65.65C32.418 65.6592 32.3986 65.6805 32.392 65.7069L32.0937 66.9497C32.0866 66.9805 32.0978 67.0127 32.1226 67.0323C32.1475 67.0519 32.1813 67.0552 32.2096 67.041L33.9416 66.1582C33.9629 66.1471 33.9782 66.1272 33.9836 66.1039L34.1904 65.1446C34.1966 65.1159 34.1867 65.0862 34.1649 65.0669C34.1429 65.0475 34.1123 65.0413 34.0845 65.0508L32.4436 65.65L32.4436 65.65L32.4436 65.65ZM63.7811 67.0162C63.8076 67.0295 63.8395 67.0262 63.8629 67.0077C63.8861 66.9891 63.8965 66.9588 63.8896 66.9299L63.6038 65.6894C63.5976 65.6641 63.579 65.6438 63.5545 65.6352L61.9134 65.0237C61.8877 65.0142 61.8588 65.0194 61.838 65.0374C61.817 65.0553 61.8073 65.0829 61.8125 65.1099L62.0194 66.084C62.0243 66.1062 62.0387 66.1254 62.0589 66.1358L63.7811 67.0162L63.7811 67.0162L63.7811 67.0162ZM55.478 88.7001C59.5458 82.8112 60.588 74.9248 59.6813 67.7585C59.6731 67.691 59.6418 67.6375 59.5877 67.598L57.8408 66.3157C57.8211 66.301 57.8129 66.3067 57.8162 66.3331C58.6022 73.3859 58.102 81.0923 55.7859 87.7358C55.6758 88.0499 55.546 88.3532 55.3966 88.6458C55.3818 88.6738 55.3884 88.696 55.4164 88.7125L55.4187 88.715C55.4418 88.7281 55.4615 88.7232 55.478 88.7001L55.478 88.7001L55.478 88.7001ZM40.5865 88.7126C39.3973 85.5034 38.6154 82.2934 38.2408 79.0827C37.7465 74.8542 37.7244 70.6134 38.1744 66.3602C38.1747 66.3537 38.1712 66.3476 38.1654 66.3444C38.1597 66.3414 38.1526 66.3417 38.1472 66.3455L36.4003 67.6179C36.3642 67.6443 36.3437 67.6788 36.3388 67.7215C35.3779 74.7719 36.4817 82.8582 40.5667 88.7224C40.6013 88.7734 40.6079 88.7701 40.5865 88.7126L40.5865 88.7126L40.5865 88.7126ZM27.5053 68.4342C27.4993 68.4609 27.5076 68.4888 27.5272 68.5078C27.5468 68.5269 27.5749 68.5345 27.6013 68.5278L29.2398 68.1235C29.27 68.1164 29.293 68.0922 29.299 68.0619L29.5725 66.555C29.578 66.5288 29.57 66.5017 29.551 66.4827C29.5322 66.4638 29.5049 66.4557 29.4789 66.4614L27.9463 66.745C27.915 66.75 27.8898 66.7732 27.8822 66.8042L27.5053 68.4342L27.5053 68.4342L27.5053 68.4342ZM66.691 68.0596C66.6968 68.092 66.7208 68.118 66.7527 68.1263L68.3518 68.5109C68.3796 68.5174 68.4088 68.5092 68.4292 68.4893C68.4497 68.4692 68.4585 68.4403 68.4527 68.4122L68.0881 66.7871C68.0807 66.7544 68.0546 66.7291 68.0216 66.723L66.4988 66.4468C66.4713 66.4413 66.4431 66.45 66.4232 66.4697C66.4034 66.4896 66.3948 66.518 66.4003 66.5455L66.691 68.0596L66.691 68.0596L66.691 68.0596ZM31.6202 70.1849C31.12 76.5671 32.7634 83.1737 37.0111 87.9604C37.1163 88.0786 37.1319 88.0671 37.0578 87.9258C34.079 82.2317 33.059 75.6177 33.611 69.2577C33.6124 69.2435 33.606 69.2295 33.5943 69.2212C33.5824 69.213 33.5671 69.2119 33.5543 69.2182L31.7631 69.9852C31.6744 70.0213 31.6267 70.088 31.6202 70.1849L31.6202 70.1849L31.6202 70.1849ZM64.2739 69.9903L62.4285 69.2085C62.4198 69.2051 62.41 69.2063 62.4025 69.2119C62.395 69.2174 62.3908 69.2264 62.3916 69.2357C62.9335 75.6301 61.9603 82.3526 58.9272 87.9579C58.7992 88.1946 58.8205 88.2103 58.9913 88.0048C63.1381 83.0282 64.9589 76.6634 64.3527 70.0988C64.3478 70.0478 64.3216 70.0116 64.2739 69.9903L64.2739 69.9903L64.2739 69.9903ZM62.929 86.9567C62.8436 87.0949 62.8567 87.1047 62.9685 86.9864C67.0848 82.6198 69.0403 77.3811 68.835 71.2702C68.8336 71.2252 68.8012 71.1866 68.7562 71.1765L67.0043 70.8189C66.9863 70.8156 66.9781 70.823 66.9796 70.8411C67.2433 76.6265 65.9424 82.1011 62.929 86.9567L62.929 86.9567L62.929 86.9567ZM27.1511 71.2927C26.9195 77.2778 28.9596 82.8116 33.1285 87.0729C33.1308 87.0737 33.1334 87.0734 33.1354 87.0718C33.1373 87.0704 33.1386 87.068 33.1384 87.0655C30.1004 82.2691 28.7207 76.6637 29.0065 70.9129C29.0098 70.857 28.9834 70.8348 28.9275 70.8463L27.2422 71.1866C27.1919 71.1967 27.1544 71.2401 27.1511 71.2927L27.1511 71.2927L27.1511 71.2927Z" id="Фигура" fill="#01256D" fill-rule="evenodd" stroke="none" />
          </g>
        </g>
      </g>
    </g>
    <g id="Белгородский-государственный-т" transform="translate(122 0.00048828125)">
      <g id="Белгородский-государственный-" fill="#01256D">
        <path d="M111.688 12.3203Q110.43 12.3203 109.688 11.6836Q108.945 11.0469 108.977 10.0469L108.992 10L110.539 10Q110.539 10.4531 110.816 10.75Q111.094 11.0469 111.688 11.0469Q112.273 11.0469 112.547 10.7578Q112.82 10.4688 112.82 10L114.383 10L114.398 10.0469Q114.414 11.0469 113.68 11.6836Q112.945 12.3203 111.688 12.3203ZM262.836 11.6836Q263.578 12.3203 264.836 12.3203Q266.094 12.3203 266.828 11.6836Q267.563 11.0469 267.547 10.0469L267.531 10L265.969 10Q265.969 10.4688 265.695 10.7578Q265.422 11.0469 264.836 11.0469Q264.242 11.0469 263.965 10.75Q263.688 10.4531 263.688 10L262.141 10L262.125 10.0469Q262.094 11.0469 262.836 11.6836ZM0.5 22.1875L0.5 20.8203L1.71094 20.5859L1.71094 12.4219L0.5 12.1875L0.5 10.8125L9.125 10.8125L9.125 13.6953L7.375 13.6953L7.28125 12.5703L4.02344 12.5703L4.02344 15.0234L5.97656 15.0234Q7.29687 15.0234 8.25391 15.4609Q9.21094 15.8984 9.73047 16.6914Q10.25 17.4844 10.25 18.5625Q10.25 19.6484 9.72656 20.4648Q9.20312 21.2813 8.24219 21.7344Q7.28125 22.1875 5.97656 22.1875L0.5 22.1875ZM15.2266 22.3516Q14.0156 22.3516 13.1094 21.8164Q12.2031 21.2813 11.707 20.3438Q11.2109 19.4063 11.2109 18.2031L11.2109 17.8906Q11.2109 16.6328 11.6797 15.6602Q12.1484 14.6875 13.0039 14.1289Q13.8594 13.5703 15.0234 13.5781Q16.1719 13.5781 16.9531 14.0313Q17.7344 14.4844 18.1406 15.3359Q18.5469 16.1875 18.5469 17.3984L18.5469 18.6406L13.5781 18.6406L13.5625 18.6875Q13.6094 19.2422 13.8398 19.6758Q14.0703 20.1094 14.4922 20.3555Q14.9141 20.6016 15.5156 20.6016Q16.1406 20.6016 16.6836 20.4414Q17.2266 20.2813 17.7422 19.9688L18.3594 21.375Q17.8359 21.7969 17.043 22.0742Q16.25 22.3516 15.2266 22.3516ZM216.883 21.8164Q217.789 22.3516 219 22.3516Q220.023 22.3516 220.816 22.0742Q221.609 21.7969 222.133 21.375L221.516 19.9688Q221 20.2813 220.457 20.4414Q219.914 20.6016 219.289 20.6016Q218.688 20.6016 218.266 20.3555Q217.844 20.1094 217.613 19.6758Q217.383 19.2422 217.336 18.6875L217.352 18.6406L222.32 18.6406L222.32 17.3984Q222.32 16.1875 221.914 15.3359Q221.508 14.4844 220.727 14.0313Q219.945 13.5781 218.797 13.5781Q217.633 13.5703 216.777 14.1289Q215.922 14.6875 215.453 15.6602Q214.984 16.6328 214.984 17.8906L214.984 18.2031Q214.984 19.4063 215.48 20.3438Q215.977 21.2813 216.883 21.8164ZM40.4063 21.8047Q41.3047 22.3516 42.5547 22.3516Q43.7969 22.3516 44.6875 21.8047Q45.5781 21.2578 46.0547 20.2852Q46.5313 19.3125 46.5313 18.0469L46.5313 17.8828Q46.5313 16.6172 46.0547 15.6484Q45.5781 14.6797 44.6875 14.1289Q43.7969 13.5781 42.5391 13.5781Q41.2969 13.5781 40.4023 14.1289Q39.5078 14.6797 39.0313 15.6523Q38.5547 16.625 38.5547 17.8828L38.5547 18.0469Q38.5547 19.3125 39.0313 20.2852Q39.5078 21.2578 40.4063 21.8047ZM47.4375 25.4375L47.4375 24.0625L48.5391 23.8281L48.5391 15.3438L47.3203 15.1094L47.3203 13.7344L50.6328 13.7344L50.7422 14.7188Q51.1172 14.1719 51.6484 13.875Q52.1797 13.5781 52.9141 13.5781Q53.9375 13.5781 54.6641 14.1367Q55.3906 14.6953 55.7773 15.6953Q56.1641 16.6953 56.1641 18.0313L56.1641 18.1953Q56.1641 19.4453 55.7773 20.3789Q55.3906 21.3125 54.6602 21.832Q53.9297 22.3516 52.8984 22.3516Q52.2188 22.3516 51.6992 22.1055Q51.1797 21.8594 50.8125 21.3828L50.8125 23.8281L51.9141 24.0625L51.9141 25.4375L47.4375 25.4375ZM59.0625 21.8047Q59.9609 22.3516 61.2109 22.3516Q62.4531 22.3516 63.3438 21.8047Q64.2344 21.2578 64.7109 20.2852Q65.1875 19.3125 65.1875 18.0469L65.1875 17.8828Q65.1875 16.6172 64.7109 15.6484Q64.2344 14.6797 63.3438 14.1289Q62.4531 13.5781 61.1953 13.5781Q59.9531 13.5781 59.0586 14.1289Q58.1641 14.6797 57.6875 15.6523Q57.2109 16.625 57.2109 17.8828L57.2109 18.0469Q57.2109 19.3125 57.6875 20.2852Q58.1641 21.2578 59.0625 21.8047ZM78.5508 21.8047Q79.4375 22.3516 80.6563 22.3516Q81.7578 22.3516 82.4727 22Q83.1875 21.6484 83.582 20.9922Q83.9766 20.3359 84.1094 19.4375L84.0859 19.3906L82.1406 19.3906Q82 19.9688 81.6367 20.2852Q81.2734 20.6016 80.6719 20.6016Q80.2031 20.6016 79.8242 20.3359Q79.4453 20.0703 79.2188 19.5117Q78.9922 18.9531 78.9922 18.0859L78.9922 17.8516Q78.9922 17.0313 79.1953 16.4531Q79.3984 15.875 79.8086 15.5625Q80.2188 15.25 80.8438 15.25Q81.1406 15.25 81.4297 15.3672Q81.7188 15.4844 81.9063 15.6719L82.2109 17.1797L83.9297 17.1797L83.9453 14.7578Q83.4297 14.2891 82.6055 13.9336Q81.7813 13.5781 80.6406 13.5781Q79.4453 13.5781 78.5625 14.1289Q77.6797 14.6797 77.1953 15.6406Q76.7109 16.6016 76.7109 17.8516L76.7109 18.0859Q76.7109 19.3281 77.1875 20.293Q77.6641 21.2578 78.5508 21.8047ZM134.117 22.3516Q132.867 22.3516 131.969 21.8047Q131.07 21.2578 130.594 20.2852Q130.117 19.3125 130.117 18.0469L130.117 17.8828Q130.117 16.625 130.594 15.6523Q131.07 14.6797 131.965 14.1289Q132.859 13.5781 134.102 13.5781Q135.359 13.5781 136.25 14.1289Q137.141 14.6797 137.617 15.6484Q138.094 16.6172 138.094 17.8828L138.094 18.0469Q138.094 19.3125 137.617 20.2852Q137.141 21.2578 136.25 21.8047Q135.359 22.3516 134.117 22.3516ZM140.926 21.8047Q141.813 22.3516 143.031 22.3516Q144.133 22.3516 144.848 22Q145.563 21.6484 145.957 20.9922Q146.352 20.3359 146.484 19.4375L146.461 19.3906L144.516 19.3906Q144.375 19.9688 144.012 20.2852Q143.648 20.6016 143.047 20.6016Q142.578 20.6016 142.199 20.3359Q141.82 20.0703 141.594 19.5117Q141.367 18.9531 141.367 18.0859L141.367 17.8516Q141.367 17.0313 141.57 16.4531Q141.773 15.875 142.184 15.5625Q142.594 15.25 143.219 15.25Q143.516 15.25 143.805 15.3672Q144.094 15.4844 144.281 15.6719L144.586 17.1797L146.305 17.1797L146.32 14.7578Q145.805 14.2891 144.98 13.9336Q144.156 13.5781 143.016 13.5781Q141.82 13.5781 140.938 14.1289Q140.055 14.6797 139.57 15.6406Q139.086 16.6016 139.086 17.8516L139.086 18.0859Q139.086 19.3281 139.563 20.293Q140.039 21.2578 140.926 21.8047ZM170.906 22.3516Q169.648 22.3516 168.906 21.6758Q168.164 21 168.164 19.8359Q168.164 19.0391 168.598 18.4375Q169.031 17.8359 169.879 17.4922Q170.727 17.1484 171.969 17.1484L173.086 17.1484L173.086 16.5234Q173.086 15.9141 172.73 15.5352Q172.375 15.1563 171.664 15.1563Q171.297 15.1563 171.004 15.2461Q170.711 15.3359 170.477 15.5L170.297 16.6172L168.656 16.6172L168.625 14.4219Q169.289 14.0469 170.063 13.8125Q170.836 13.5781 171.789 13.5781Q173.445 13.5781 174.406 14.3477Q175.367 15.1172 175.367 16.5469L175.367 20.0313Q175.367 20.2031 175.371 20.3711Q175.375 20.5391 175.398 20.6953L176.281 20.8203L176.281 22.1875L173.453 22.1875Q173.367 21.9688 173.281 21.7188Q173.195 21.4688 173.156 21.2188Q172.75 21.7344 172.199 22.043Q171.648 22.3516 170.906 22.3516ZM177.039 24.0625L177.039 25.4375L181.516 25.4375L181.516 24.0625L180.414 23.8281L180.414 21.3828Q180.781 21.8594 181.301 22.1055Q181.82 22.3516 182.5 22.3516Q183.531 22.3516 184.262 21.832Q184.992 21.3125 185.379 20.3789Q185.766 19.4453 185.766 18.1953L185.766 18.0313Q185.766 16.6953 185.379 15.6953Q184.992 14.6953 184.266 14.1367Q183.539 13.5781 182.516 13.5781Q181.781 13.5781 181.25 13.875Q180.719 14.1719 180.344 14.7188L180.234 13.7344L176.922 13.7344L176.922 15.1094L178.141 15.3438L178.141 23.8281L177.039 24.0625ZM190.758 22.3516Q189.539 22.3516 188.652 21.8047Q187.766 21.2578 187.289 20.293Q186.813 19.3281 186.813 18.0859L186.813 17.8516Q186.813 16.6016 187.297 15.6406Q187.781 14.6797 188.664 14.1289Q189.547 13.5781 190.742 13.5781Q191.883 13.5781 192.707 13.9336Q193.531 14.2891 194.047 14.7578L194.031 17.1797L192.313 17.1797L192.008 15.6719Q191.82 15.4844 191.531 15.3672Q191.242 15.25 190.945 15.25Q190.32 15.25 189.91 15.5625Q189.5 15.875 189.297 16.4531Q189.094 17.0313 189.094 17.8516L189.094 18.0859Q189.094 18.9531 189.32 19.5117Q189.547 20.0703 189.926 20.3359Q190.305 20.6016 190.773 20.6016Q191.375 20.6016 191.738 20.2852Q192.102 19.9688 192.242 19.3906L194.188 19.3906L194.211 19.4375Q194.078 20.3359 193.684 20.9922Q193.289 21.6484 192.574 22Q191.859 22.3516 190.758 22.3516ZM85.3516 22.1875L85.3516 20.8203L86.5703 20.5859L86.5703 15.3438L85.3516 15.1094L85.3516 13.7344L89.8828 13.7344L89.8828 15.1094L88.8438 15.3438L88.8438 16.9531L89.625 16.9531L90.8906 15.0781Q91.3672 14.3438 91.8828 13.9727Q92.3984 13.6016 93.1328 13.6016Q93.5703 13.6016 93.8906 13.7109Q94.2109 13.8203 94.5156 14.0078L94.1328 15.5859Q93.9141 15.5313 93.832 15.5117Q93.75 15.4922 93.6328 15.4922Q93.3672 15.4922 93.1172 15.6719Q92.8672 15.8516 92.6797 16.125L91.5859 17.7188L93.5469 20.6328L94.6953 20.8203L94.6953 22.1875L91.5625 22.1875L89.7188 19.0234L88.8438 19.0234L88.8438 20.5859L89.8828 20.8203L89.8828 22.1875L85.3516 22.1875ZM19.6797 20.3906L19.7109 22.1875L20.0703 22.1875Q21.9219 22.1875 22.6914 21.0117Q23.4609 19.8359 23.4609 17.3359L23.4609 15.5L25.4922 15.5L25.4922 20.5859L24.2734 20.8203L24.2734 22.1875L28.9844 22.1875L28.9844 20.8203L27.7656 20.5859L27.7656 15.3438L28.9844 15.1094L28.9844 13.7344L19.9609 13.7344L19.9609 15.1094L21.1797 15.3438L21.1797 17.3359Q21.1797 18.5078 21.082 19.1719Q20.9844 19.8359 20.7188 20.1094Q20.4531 20.3828 19.9297 20.3828L19.6797 20.3906ZM30 22.1875L30 20.8203L31.2109 20.5859L31.2109 15.3438L30 15.1094L30 13.7344L37.4063 13.7344L37.4063 16.7109L35.9766 16.7109L35.8828 15.5L33.4922 15.5L33.4922 20.5859L34.7031 20.8203L34.7031 22.1875L30 22.1875ZM66.2109 24.7188L66.0391 20.4219L66.7734 20.4219Q67.1563 20.0234 67.4063 19.6445Q67.6563 19.2656 67.8047 18.832Q67.9531 18.3984 68.0273 17.8555Q68.1016 17.3125 68.1172 16.5859L68.1484 15.3438L66.9531 15.1094L66.9531 13.7344L75.625 13.7344L75.625 15.1094L74.4063 15.3438L74.4063 20.4375L75.6328 20.4375L75.4766 24.7188L73.3516 24.7188L73.3516 22.1875L68.3438 22.1875L68.3438 24.7188L66.2109 24.7188ZM95.6953 20.8203L95.6953 22.1875L99.1953 22.1875L101.945 17.0391L101.992 17.0469L101.992 20.5859L100.898 20.8203L100.898 22.1875L105.484 22.1875L105.484 20.8203L104.273 20.5859L104.273 15.3438L105.484 15.1094L105.484 13.7344L101.992 13.7344L99.2422 18.875L99.1953 18.8672L99.1953 15.3438L100.289 15.1094L100.289 13.7344L95.6953 13.7344L95.6953 15.1094L96.9141 15.3438L96.9141 20.5859L95.6953 20.8203ZM106.766 22.1875L106.766 20.8203L107.984 20.5859L107.984 15.3438L106.766 15.1094L106.766 13.7344L111.359 13.7344L111.359 15.1094L110.266 15.3438L110.266 18.8672L110.313 18.875L113.063 13.7344L116.555 13.7344L116.555 15.1094L115.344 15.3438L115.344 20.5859L116.555 20.8203L116.555 22.1875L111.969 22.1875L111.969 20.8203L113.063 20.5859L113.063 17.0469L113.016 17.0391L110.266 22.1875L106.766 22.1875ZM121.563 20.8203L121.563 22.1875L126.266 22.1875L126.266 20.8203L125.055 20.5859L125.055 15.5L127.445 15.5L127.539 16.7109L128.969 16.7109L128.969 13.7344L121.563 13.7344L121.563 15.1094L122.773 15.3438L122.773 20.5859L121.563 20.8203ZM149.852 25.6016Q149.555 25.6016 149.223 25.5508Q148.891 25.5 148.594 25.4141L148.852 23.7422Q149 23.7734 149.18 23.7891Q149.359 23.8047 149.492 23.8047Q149.984 23.8047 150.344 23.5469Q150.703 23.2891 150.867 22.8047L151.055 22.2813L148.227 15.2578L147.188 15.1094L147.188 13.7344L151.672 13.7344L151.672 15.1094L150.641 15.2656L151.969 18.9922L152.133 19.4531L152.18 19.4531L153.75 15.25L152.742 15.1094L152.742 13.7344L156.922 13.7344L156.922 15.1094L155.969 15.2422L152.742 23.4453Q152.508 24.0313 152.145 24.5195Q151.781 25.0078 151.223 25.3047Q150.664 25.6016 149.852 25.6016ZM157.438 20.4219L157.609 24.7188L159.742 24.7188L159.742 22.1875L164.75 22.1875L164.75 24.7188L166.875 24.7188L167.031 20.4375L165.805 20.4375L165.805 15.3438L167.023 15.1094L167.023 13.7344L158.352 13.7344L158.352 15.1094L159.547 15.3438L159.516 16.5859Q159.5 17.3125 159.426 17.8555Q159.352 18.3984 159.203 18.832Q159.055 19.2656 158.805 19.6445Q158.555 20.0234 158.172 20.4219L157.438 20.4219ZM197.211 20.8203L197.211 22.1875L201.922 22.1875L201.922 20.8203L200.711 20.5859L200.711 15.4766L202.156 15.4766L202.25 16.6172L204 16.6172L204 13.7344L195.172 13.7344L195.172 16.6172L196.922 16.6172L197.008 15.4766L198.422 15.4766L198.422 20.5859L197.211 20.8203ZM205.164 22.1875L205.164 20.8203L206.383 20.5859L206.383 15.3438L205.164 15.1094L205.164 13.7344L209.914 13.7344Q211.602 13.7344 212.543 14.3203Q213.484 14.9063 213.484 16.0469Q213.484 16.6719 213.109 17.1367Q212.734 17.6016 211.969 17.8516Q212.977 18.0469 213.449 18.5664Q213.922 19.0859 213.922 19.8203Q213.922 20.9766 213.027 21.582Q212.133 22.1875 210.461 22.1875L205.164 22.1875ZM223.547 22.1875L223.547 20.8203L224.766 20.5859L224.766 15.3438L223.547 15.1094L223.547 13.7344L228.023 13.7344L228.023 15.1094L227.039 15.3438L227.039 17.1563L229.82 17.1563L229.82 15.3438L228.844 15.1094L228.844 13.7344L233.32 13.7344L233.32 15.1094L232.102 15.3438L232.102 20.5859L233.32 20.8203L233.32 22.1875L228.844 22.1875L228.844 20.8203L229.82 20.5859L229.82 18.9063L227.039 18.9063L227.039 20.5859L228.023 20.8203L228.023 22.1875L223.547 22.1875ZM234.602 20.8203L234.602 22.1875L239.078 22.1875L239.078 20.8203L238.094 20.5859L238.094 18.9063L240.875 18.9063L240.875 20.5859L239.898 20.8203L239.898 22.1875L244.375 22.1875L244.375 20.8203L243.156 20.5859L243.156 15.3438L244.375 15.1094L244.375 13.7344L239.898 13.7344L239.898 15.1094L240.875 15.3438L240.875 17.1563L238.094 17.1563L238.094 15.3438L239.078 15.1094L239.078 13.7344L234.602 13.7344L234.602 15.1094L235.82 15.3438L235.82 20.5859L234.602 20.8203ZM250.789 16.4609Q252.508 16.4609 253.48 17.2305Q254.453 18 254.453 19.2813Q254.453 20.5938 253.477 21.3906Q252.5 22.1875 250.789 22.1875L245.703 22.1875L245.703 20.8203L246.922 20.5859L246.922 15.3438L245.703 15.1094L245.703 13.7344L250.422 13.7344L250.422 15.1094L249.203 15.3438L249.203 16.4609L250.789 16.4609ZM254.594 22.1875L254.594 20.8203L255.695 20.5859L255.695 15.3438L254.477 15.1094L254.477 13.7344L257.977 13.7344L257.977 20.5859L259.07 20.8203L259.07 22.1875L254.594 22.1875ZM259.914 20.8203L259.914 22.1875L263.414 22.1875L266.164 17.0391L266.211 17.0469L266.211 20.5859L265.117 20.8203L265.117 22.1875L269.703 22.1875L269.703 20.8203L268.492 20.5859L268.492 15.3438L269.703 15.1094L269.703 13.7344L266.211 13.7344L263.461 18.875L263.414 18.8672L263.414 15.3438L264.508 15.1094L264.508 13.7344L259.914 13.7344L259.914 15.1094L261.133 15.3438L261.133 20.5859L259.914 20.8203ZM13.5938 17.1328L16.4141 17.1328L16.4141 16.9297Q16.4141 16.4141 16.2773 16.043Q16.1406 15.6719 15.8398 15.4688Q15.5391 15.2656 15.0625 15.2656Q14.6094 15.2656 14.2969 15.5039Q13.9844 15.7422 13.8086 16.1563Q13.6328 16.5703 13.5703 17.0938L13.5938 17.1328ZM220.188 17.1328L217.367 17.1328L217.344 17.0938Q217.406 16.5703 217.582 16.1563Q217.758 15.7422 218.07 15.5039Q218.383 15.2656 218.836 15.2656Q219.313 15.2656 219.613 15.4688Q219.914 15.6719 220.051 16.043Q220.188 16.4141 220.188 16.9297L220.188 17.1328ZM43.5234 20.2813Q43.1484 20.6016 42.5547 20.6016Q41.9531 20.6016 41.5703 20.2852Q41.1875 19.9688 41.0117 19.3906Q40.8359 18.8125 40.8359 18.0469L40.8359 17.8828Q40.8359 17.1328 41.0117 16.5586Q41.1875 15.9844 41.5703 15.6602Q41.9531 15.3359 42.5391 15.3359Q43.1406 15.3359 43.5195 15.6602Q43.8984 15.9844 44.0781 16.5586Q44.2578 17.1328 44.2578 17.8828L44.2578 18.0469Q44.2578 18.8125 44.0781 19.3867Q43.8984 19.9609 43.5234 20.2813ZM62.1797 20.2813Q61.8047 20.6016 61.2109 20.6016Q60.6094 20.6016 60.2266 20.2852Q59.8438 19.9688 59.668 19.3906Q59.4922 18.8125 59.4922 18.0469L59.4922 17.8828Q59.4922 17.1328 59.668 16.5586Q59.8438 15.9844 60.2266 15.6602Q60.6094 15.3359 61.1953 15.3359Q61.7969 15.3359 62.1758 15.6602Q62.5547 15.9844 62.7344 16.5586Q62.9141 17.1328 62.9141 17.8828L62.9141 18.0469Q62.9141 18.8125 62.7344 19.3867Q62.5547 19.9609 62.1797 20.2813ZM134.117 20.6016Q134.711 20.6016 135.086 20.2813Q135.461 19.9609 135.641 19.3867Q135.82 18.8125 135.82 18.0469L135.82 17.8828Q135.82 17.1328 135.641 16.5586Q135.461 15.9844 135.082 15.6602Q134.703 15.3359 134.102 15.3359Q133.516 15.3359 133.133 15.6602Q132.75 15.9844 132.574 16.5586Q132.398 17.1328 132.398 17.8828L132.398 18.0469Q132.398 18.8125 132.574 19.3906Q132.75 19.9688 133.133 20.2852Q133.516 20.6016 134.117 20.6016ZM52.2188 20.6016Q53.0938 20.6016 53.4883 19.9531Q53.8828 19.3047 53.8828 18.1953L53.8828 18.0313Q53.8828 17.2266 53.7031 16.6289Q53.5234 16.0313 53.1523 15.6914Q52.7813 15.3516 52.2031 15.3516Q51.7344 15.3516 51.3789 15.5625Q51.0234 15.7734 50.8125 16.1641L50.8125 19.8672Q51.0234 20.2266 51.3789 20.4141Q51.7344 20.6016 52.2188 20.6016ZM183.09 19.9531Q182.695 20.6016 181.82 20.6016Q181.336 20.6016 180.98 20.4141Q180.625 20.2266 180.414 19.8672L180.414 16.1641Q180.625 15.7734 180.98 15.5625Q181.336 15.3516 181.805 15.3516Q182.383 15.3516 182.754 15.6914Q183.125 16.0313 183.305 16.6289Q183.484 17.2266 183.484 18.0313L183.484 18.1953Q183.484 19.3047 183.09 19.9531ZM208.656 17.1797L209.977 17.1797Q210.617 17.1719 210.91 16.957Q211.203 16.7422 211.203 16.3281Q211.203 15.4766 209.93 15.4766L208.656 15.4766L208.656 17.1797ZM69.3828 20.4297L72.1406 20.4297L72.1406 15.5547L70.4219 15.5547L70.3984 16.5859Q70.3672 17.8438 70.0938 18.793Q69.8203 19.7422 69.3828 20.4297ZM163.539 20.4297L160.781 20.4297Q161.219 19.7422 161.492 18.793Q161.766 17.8438 161.797 16.5859L161.82 15.5547L163.539 15.5547L163.539 20.4297ZM4.02344 20.4375L5.97656 20.4375Q6.9375 20.4375 7.45703 19.9023Q7.97656 19.3672 7.97656 18.5469Q7.97656 17.7656 7.46484 17.2734Q6.95313 16.7813 5.97656 16.7813L4.02344 16.7813L4.02344 20.4375ZM249.203 20.4453L250.789 20.4453Q251.492 20.4453 251.836 20.1289Q252.18 19.8125 252.18 19.2969Q252.18 18.7656 251.84 18.4375Q251.5 18.1094 250.789 18.1094L249.203 18.1094L249.203 20.4453ZM171.516 20.6641Q171.992 20.6641 172.422 20.4492Q172.852 20.2344 173.086 19.8828L173.086 18.5469L171.961 18.5469Q171.211 18.5469 170.824 18.8906Q170.438 19.2344 170.438 19.7188Q170.438 20.1719 170.723 20.418Q171.008 20.6641 171.516 20.6641ZM208.656 20.4531L210.453 20.4531Q211.055 20.4531 211.348 20.2305Q211.641 20.0078 211.641 19.5625Q211.641 19.1328 211.367 18.8984Q211.094 18.6641 210.461 18.6641L208.656 18.6641L208.656 20.4531Z" />
      </g>
      <g id="технологический-университет-" fill="#01256D">
        <path d="M142.086 33.3203Q140.828 33.3203 140.086 32.6836Q139.344 32.0469 139.375 31.0469L139.391 31L140.938 31Q140.938 31.4531 141.215 31.75Q141.492 32.0469 142.086 32.0469Q142.672 32.0469 142.945 31.7578Q143.219 31.4688 143.219 31L144.781 31L144.797 31.0469Q144.813 32.0469 144.078 32.6836Q143.344 33.3203 142.086 33.3203ZM12.1328 42.8164Q13.0391 43.3516 14.25 43.3516Q15.2734 43.3516 16.0664 43.0742Q16.8594 42.7969 17.3828 42.375L16.7656 40.9688Q16.25 41.2813 15.707 41.4414Q15.1641 41.6016 14.5391 41.6016Q13.9375 41.6016 13.5156 41.3555Q13.0938 41.1094 12.8633 40.6758Q12.6328 40.2422 12.5859 39.6875L12.6016 39.6406L17.5703 39.6406L17.5703 38.3984Q17.5703 37.1875 17.1641 36.3359Q16.7578 35.4844 15.9766 35.0313Q15.1953 34.5781 14.0469 34.5781Q12.8828 34.5703 12.0273 35.1289Q11.1719 35.6875 10.7031 36.6602Q10.2344 37.6328 10.2344 38.8906L10.2344 39.2031Q10.2344 40.4063 10.7305 41.3438Q11.2266 42.2813 12.1328 42.8164ZM102.703 43.3516Q101.492 43.3516 100.586 42.8164Q99.6797 42.2813 99.1836 41.3438Q98.6875 40.4063 98.6875 39.2031L98.6875 38.8906Q98.6875 37.6328 99.1563 36.6602Q99.625 35.6875 100.48 35.1289Q101.336 34.5703 102.5 34.5781Q103.648 34.5781 104.43 35.0313Q105.211 35.4844 105.617 36.3359Q106.023 37.1875 106.023 38.3984L106.023 39.6406L101.055 39.6406L101.039 39.6875Q101.086 40.2422 101.316 40.6758Q101.547 41.1094 101.969 41.3555Q102.391 41.6016 102.992 41.6016Q103.617 41.6016 104.16 41.4414Q104.703 41.2813 105.219 40.9688L105.836 42.375Q105.313 42.7969 104.52 43.0742Q103.727 43.3516 102.703 43.3516ZM196.086 42.8164Q196.992 43.3516 198.203 43.3516Q199.227 43.3516 200.02 43.0742Q200.813 42.7969 201.336 42.375L200.719 40.9688Q200.203 41.2813 199.66 41.4414Q199.117 41.6016 198.492 41.6016Q197.891 41.6016 197.469 41.3555Q197.047 41.1094 196.816 40.6758Q196.586 40.2422 196.539 39.6875L196.555 39.6406L201.523 39.6406L201.523 38.3984Q201.523 37.1875 201.117 36.3359Q200.711 35.4844 199.93 35.0313Q199.148 34.5781 198 34.5781Q196.836 34.5703 195.98 35.1289Q195.125 35.6875 194.656 36.6602Q194.188 37.6328 194.188 38.8906L194.188 39.2031Q194.188 40.4063 194.684 41.3438Q195.18 42.2813 196.086 42.8164ZM245.547 43.3516Q244.336 43.3516 243.43 42.8164Q242.523 42.2813 242.027 41.3438Q241.531 40.4063 241.531 39.2031L241.531 38.8906Q241.531 37.6328 242 36.6602Q242.469 35.6875 243.324 35.1289Q244.18 34.5703 245.344 34.5781Q246.492 34.5781 247.273 35.0313Q248.055 35.4844 248.461 36.3359Q248.867 37.1875 248.867 38.3984L248.867 39.6406L243.898 39.6406L243.883 39.6875Q243.93 40.2422 244.16 40.6758Q244.391 41.1094 244.813 41.3555Q245.234 41.6016 245.836 41.6016Q246.461 41.6016 247.004 41.4414Q247.547 41.2813 248.063 40.9688L248.68 42.375Q248.156 42.7969 247.363 43.0742Q246.57 43.3516 245.547 43.3516ZM44.0156 43.3516Q42.7656 43.3516 41.8672 42.8047Q40.9688 42.2578 40.4922 41.2852Q40.0156 40.3125 40.0156 39.0469L40.0156 38.8828Q40.0156 37.625 40.4922 36.6523Q40.9688 35.6797 41.8633 35.1289Q42.7578 34.5781 44 34.5781Q45.2578 34.5781 46.1484 35.1289Q47.0391 35.6797 47.5156 36.6484Q47.9922 37.6172 47.9922 38.8828L47.9922 39.0469Q47.9922 40.3125 47.5156 41.2852Q47.0391 42.2578 46.1484 42.8047Q45.2578 43.3516 44.0156 43.3516ZM63.4063 43.3516Q62.1563 43.3516 61.2578 42.8047Q60.3594 42.2578 59.8828 41.2852Q59.4063 40.3125 59.4063 39.0469L59.4063 38.8828Q59.4063 37.625 59.8828 36.6523Q60.3594 35.6797 61.2539 35.1289Q62.1484 34.5781 63.3906 34.5781Q64.6484 34.5781 65.5391 35.1289Q66.4297 35.6797 66.9063 36.6484Q67.3828 37.6172 67.3828 38.8828L67.3828 39.0469Q67.3828 40.3125 66.9063 41.2852Q66.4297 42.2578 65.5391 42.8047Q64.6484 43.3516 63.4063 43.3516ZM108.949 42.8047Q109.836 43.3516 111.055 43.3516Q112.156 43.3516 112.871 43Q113.586 42.6484 113.98 41.9922Q114.375 41.3359 114.508 40.4375L114.484 40.3906L112.539 40.3906Q112.398 40.9688 112.035 41.2852Q111.672 41.6016 111.07 41.6016Q110.602 41.6016 110.223 41.3359Q109.844 41.0703 109.617 40.5117Q109.391 39.9531 109.391 39.0859L109.391 38.8516Q109.391 38.0313 109.594 37.4531Q109.797 36.875 110.207 36.5625Q110.617 36.25 111.242 36.25Q111.539 36.25 111.828 36.3672Q112.117 36.4844 112.305 36.6719L112.609 38.1797L114.328 38.1797L114.344 35.7578Q113.828 35.2891 113.004 34.9336Q112.18 34.5781 111.039 34.5781Q109.844 34.5781 108.961 35.1289Q108.078 35.6797 107.594 36.6406Q107.109 37.6016 107.109 38.8516L107.109 39.0859Q107.109 40.3281 107.586 41.293Q108.063 42.2578 108.949 42.8047ZM202.523 46.4375L202.523 45.0625L203.625 44.8281L203.625 36.3438L202.406 36.1094L202.406 34.7344L205.719 34.7344L205.828 35.7188Q206.203 35.1719 206.734 34.875Q207.266 34.5781 208 34.5781Q209.023 34.5781 209.75 35.1367Q210.477 35.6953 210.863 36.6953Q211.25 37.6953 211.25 39.0313L211.25 39.1953Q211.25 40.4453 210.863 41.3789Q210.477 42.3125 209.746 42.832Q209.016 43.3516 207.984 43.3516Q207.305 43.3516 206.785 43.1055Q206.266 42.8594 205.898 42.3828L205.898 44.8281L207 45.0625L207 46.4375L202.523 46.4375ZM214.137 42.8047Q215.023 43.3516 216.242 43.3516Q217.344 43.3516 218.059 43Q218.773 42.6484 219.168 41.9922Q219.563 41.3359 219.695 40.4375L219.672 40.3906L217.727 40.3906Q217.586 40.9688 217.223 41.2852Q216.859 41.6016 216.258 41.6016Q215.789 41.6016 215.41 41.3359Q215.031 41.0703 214.805 40.5117Q214.578 39.9531 214.578 39.0859L214.578 38.8516Q214.578 38.0313 214.781 37.4531Q214.984 36.875 215.395 36.5625Q215.805 36.25 216.43 36.25Q216.727 36.25 217.016 36.3672Q217.305 36.4844 217.492 36.6719L217.797 38.1797L219.516 38.1797L219.531 35.7578Q219.016 35.2891 218.191 34.9336Q217.367 34.5781 216.227 34.5781Q215.031 34.5781 214.148 35.1289Q213.266 35.6797 212.781 36.6406Q212.297 37.6016 212.297 38.8516L212.297 39.0859Q212.297 40.3281 212.773 41.293Q213.25 42.2578 214.137 42.8047ZM115.75 43.1875L115.75 41.8203L116.969 41.5859L116.969 36.3438L115.75 36.1094L115.75 34.7344L120.281 34.7344L120.281 36.1094L119.242 36.3438L119.242 37.9531L120.023 37.9531L121.289 36.0781Q121.766 35.3438 122.281 34.9727Q122.797 34.6016 123.531 34.6016Q123.969 34.6016 124.289 34.7109Q124.609 34.8203 124.914 35.0078L124.531 36.5859Q124.313 36.5313 124.23 36.5117Q124.148 36.4922 124.031 36.4922Q123.766 36.4922 123.516 36.6719Q123.266 36.8516 123.078 37.125L121.984 38.7188L123.945 41.6328L125.094 41.8203L125.094 43.1875L121.961 43.1875L120.117 40.0234L119.242 40.0234L119.242 41.5859L120.281 41.8203L120.281 43.1875L115.75 43.1875ZM2.46875 41.8203L2.46875 43.1875L7.17969 43.1875L7.17969 41.8203L5.96875 41.5859L5.96875 36.4766L7.41406 36.4766L7.50781 37.6172L9.25781 37.6172L9.25781 34.7344L0.429688 34.7344L0.429688 37.6172L2.17969 37.6172L2.26563 36.4766L3.67969 36.4766L3.67969 41.5859L2.46875 41.8203ZM18.3672 43.1875L18.3672 41.8203L19.4531 41.6797L21.875 38.9531L19.5859 36.2422L18.5625 36.1094L18.5625 34.7344L22.75 34.7344L22.75 36.0469L22.0938 36.1484L23.3203 37.7578L24.5469 36.1484L23.8203 36.0469L23.8203 34.7344L27.8594 34.7344L27.8594 36.1094L26.9141 36.2422L24.75 38.8594L27.1641 41.6797L28.2031 41.8203L28.2031 43.1875L23.8672 43.1875L23.8672 41.8828L24.6016 41.7813L23.2969 40.1641L22.0234 41.7891L22.7422 41.8828L22.7422 43.1875L18.3672 43.1875ZM29.1016 41.8203L29.1016 43.1875L33.5781 43.1875L33.5781 41.8203L32.5938 41.5859L32.5938 39.9063L35.375 39.9063L35.375 41.5859L34.3984 41.8203L34.3984 43.1875L38.875 43.1875L38.875 41.8203L37.6563 41.5859L37.6563 36.3438L38.875 36.1094L38.875 34.7344L34.3984 34.7344L34.3984 36.1094L35.375 36.3438L35.375 38.1563L32.5938 38.1563L32.5938 36.3438L33.5781 36.1094L33.5781 34.7344L29.1016 34.7344L29.1016 36.1094L30.3203 36.3438L30.3203 41.5859L29.1016 41.8203ZM49.0313 41.3906L49.0625 43.1875L49.4219 43.1875Q51.2734 43.1875 52.043 42.0117Q52.8125 40.8359 52.8125 38.3359L52.8125 36.5L54.8438 36.5L54.8438 41.5859L53.625 41.8203L53.625 43.1875L58.3359 43.1875L58.3359 41.8203L57.1172 41.5859L57.1172 36.3438L58.3359 36.1094L58.3359 34.7344L49.3125 34.7344L49.3125 36.1094L50.5313 36.3438L50.5313 38.3359Q50.5313 39.5078 50.4336 40.1719Q50.3359 40.8359 50.0703 41.1094Q49.8047 41.3828 49.2813 41.3828L49.0313 41.3906ZM68.3203 41.8203L68.3203 43.1875L73.0234 43.1875L73.0234 41.8203L71.8125 41.5859L71.8125 36.5L74.2031 36.5L74.2969 37.7109L75.7266 37.7109L75.7266 34.7344L68.3203 34.7344L68.3203 36.1094L69.5313 36.3438L69.5313 41.5859L68.3203 41.8203ZM77.0156 43.1875L77.0156 41.8203L78.2344 41.5859L78.2344 36.3438L77.0156 36.1094L77.0156 34.7344L81.6094 34.7344L81.6094 36.1094L80.5156 36.3438L80.5156 39.8672L80.5625 39.875L83.3125 34.7344L86.8047 34.7344L86.8047 36.1094L85.5938 36.3438L85.5938 41.5859L86.8047 41.8203L86.8047 43.1875L82.2188 43.1875L82.2188 41.8203L83.3125 41.5859L83.3125 38.0469L83.2656 38.0391L80.5156 43.1875L77.0156 43.1875ZM92.8438 41.8203L92.8438 43.1875L97.5625 43.1875L97.5625 41.8203L96.3438 41.5859L96.3438 36.3438L97.5625 36.1094L97.5625 34.7344L93.0781 34.7344L93.0781 36.1094L94.0625 36.3438L94.0625 38.7422Q93.7656 38.8047 93.4727 38.8359Q93.1797 38.8672 92.8594 38.8672Q92.3047 38.8672 91.957 38.7305Q91.6094 38.5938 91.4531 38.2695Q91.2969 37.9453 91.2969 37.3906L91.2969 36.3359L92.2734 36.1016L92.2734 34.7344L87.8047 34.7344L87.8047 36.1016L89.0156 36.3359L89.0156 37.3906Q89.0156 38.4844 89.4688 39.2031Q89.9219 39.9219 90.7813 40.2734Q91.6406 40.625 92.8594 40.625Q93.1641 40.625 93.4688 40.5977Q93.7734 40.5703 94.0625 40.5078L94.0625 41.5859L92.8438 41.8203ZM126.094 41.8203L126.094 43.1875L129.594 43.1875L132.344 38.0391L132.391 38.0469L132.391 41.5859L131.297 41.8203L131.297 43.1875L135.883 43.1875L135.883 41.8203L134.672 41.5859L134.672 36.3438L135.883 36.1094L135.883 34.7344L132.391 34.7344L129.641 39.875L129.594 39.8672L129.594 36.3438L130.688 36.1094L130.688 34.7344L126.094 34.7344L126.094 36.1094L127.313 36.3438L127.313 41.5859L126.094 41.8203ZM137.164 43.1875L137.164 41.8203L138.383 41.5859L138.383 36.3438L137.164 36.1094L137.164 34.7344L141.758 34.7344L141.758 36.1094L140.664 36.3438L140.664 39.8672L140.711 39.875L143.461 34.7344L146.953 34.7344L146.953 36.1094L145.742 36.3438L145.742 41.5859L146.953 41.8203L146.953 43.1875L142.367 43.1875L142.367 41.8203L143.461 41.5859L143.461 38.0469L143.414 38.0391L140.664 43.1875L137.164 43.1875ZM153.699 46.5508Q154.031 46.6016 154.328 46.6016Q155.141 46.6016 155.699 46.3047Q156.258 46.0078 156.621 45.5195Q156.984 45.0313 157.219 44.4453L160.445 36.2422L161.398 36.1094L161.398 34.7344L157.219 34.7344L157.219 36.1094L158.227 36.25L156.656 40.4531L156.609 40.4531L156.445 39.9922L155.117 36.2656L156.148 36.1094L156.148 34.7344L151.664 34.7344L151.664 36.1094L152.703 36.2578L155.531 43.2813L155.344 43.8047Q155.18 44.2891 154.82 44.5469Q154.461 44.8047 153.969 44.8047Q153.836 44.8047 153.656 44.7891Q153.477 44.7734 153.328 44.7422L153.07 46.4141Q153.367 46.5 153.699 46.5508ZM162.195 43.1875L162.195 41.8203L163.414 41.5859L163.414 36.3438L162.195 36.1094L162.195 34.7344L166.672 34.7344L166.672 36.1094L165.688 36.3438L165.688 38.1563L168.469 38.1563L168.469 36.3438L167.492 36.1094L167.492 34.7344L171.969 34.7344L171.969 36.1094L170.75 36.3438L170.75 41.5859L171.969 41.8203L171.969 43.1875L167.492 43.1875L167.492 41.8203L168.469 41.5859L168.469 39.9063L165.688 39.9063L165.688 41.5859L166.672 41.8203L166.672 43.1875L162.195 43.1875ZM173.25 41.8203L173.25 43.1875L176.75 43.1875L179.5 38.0391L179.547 38.0469L179.547 41.5859L178.453 41.8203L178.453 43.1875L183.039 43.1875L183.039 41.8203L181.828 41.5859L181.828 36.3438L183.039 36.1094L183.039 34.7344L179.547 34.7344L176.797 39.875L176.75 39.8672L176.75 36.3438L177.844 36.1094L177.844 34.7344L173.25 34.7344L173.25 36.1094L174.469 36.3438L174.469 41.5859L173.25 41.8203ZM184.367 43.1875L184.367 41.8203L185.586 41.5859L185.586 36.3438L184.367 36.1094L184.367 34.7344L189.117 34.7344Q190.805 34.7344 191.746 35.3203Q192.688 35.9063 192.688 37.0469Q192.688 37.6719 192.313 38.1367Q191.938 38.6016 191.172 38.8516Q192.18 39.0469 192.652 39.5664Q193.125 40.0859 193.125 40.8203Q193.125 41.9766 192.23 42.582Q191.336 43.1875 189.664 43.1875L184.367 43.1875ZM220.891 43.1875L220.891 41.8203L222.109 41.5859L222.109 36.3438L220.891 36.1094L220.891 34.7344L225.484 34.7344L225.484 36.1094L224.391 36.3438L224.391 39.8672L224.438 39.875L227.188 34.7344L230.68 34.7344L230.68 36.1094L229.469 36.3438L229.469 41.5859L230.68 41.8203L230.68 43.1875L226.094 43.1875L226.094 41.8203L227.188 41.5859L227.188 38.0469L227.141 38.0391L224.391 43.1875L220.891 43.1875ZM233.766 41.8203L233.766 43.1875L238.477 43.1875L238.477 41.8203L237.266 41.5859L237.266 36.4766L238.711 36.4766L238.805 37.6172L240.555 37.6172L240.555 34.7344L231.727 34.7344L231.727 37.6172L233.477 37.6172L233.563 36.4766L234.977 36.4766L234.977 41.5859L233.766 41.8203ZM251.898 41.8203L251.898 43.1875L256.609 43.1875L256.609 41.8203L255.398 41.5859L255.398 36.4766L256.844 36.4766L256.938 37.6172L258.688 37.6172L258.688 34.7344L249.859 34.7344L249.859 37.6172L251.609 37.6172L251.695 36.4766L253.109 36.4766L253.109 41.5859L251.898 41.8203ZM15.4375 38.1328L12.6172 38.1328L12.5938 38.0938Q12.6563 37.5703 12.832 37.1563Q13.0078 36.7422 13.3203 36.5039Q13.6328 36.2656 14.0859 36.2656Q14.5625 36.2656 14.8633 36.4688Q15.1641 36.6719 15.3008 37.043Q15.4375 37.4141 15.4375 37.9297L15.4375 38.1328ZM101.07 38.1328L103.891 38.1328L103.891 37.9297Q103.891 37.4141 103.754 37.043Q103.617 36.6719 103.316 36.4688Q103.016 36.2656 102.539 36.2656Q102.086 36.2656 101.773 36.5039Q101.461 36.7422 101.285 37.1563Q101.109 37.5703 101.047 38.0938L101.07 38.1328ZM199.391 38.1328L196.57 38.1328L196.547 38.0938Q196.609 37.5703 196.785 37.1563Q196.961 36.7422 197.273 36.5039Q197.586 36.2656 198.039 36.2656Q198.516 36.2656 198.816 36.4688Q199.117 36.6719 199.254 37.043Q199.391 37.4141 199.391 37.9297L199.391 38.1328ZM243.914 38.1328L246.734 38.1328L246.734 37.9297Q246.734 37.4141 246.598 37.043Q246.461 36.6719 246.16 36.4688Q245.859 36.2656 245.383 36.2656Q244.93 36.2656 244.617 36.5039Q244.305 36.7422 244.129 37.1563Q243.953 37.5703 243.891 38.0938L243.914 38.1328ZM44.0156 41.6016Q44.6094 41.6016 44.9844 41.2813Q45.3594 40.9609 45.5391 40.3867Q45.7188 39.8125 45.7188 39.0469L45.7188 38.8828Q45.7188 38.1328 45.5391 37.5586Q45.3594 36.9844 44.9805 36.6602Q44.6016 36.3359 44 36.3359Q43.4141 36.3359 43.0313 36.6602Q42.6484 36.9844 42.4727 37.5586Q42.2969 38.1328 42.2969 38.8828L42.2969 39.0469Q42.2969 39.8125 42.4727 40.3906Q42.6484 40.9688 43.0313 41.2852Q43.4141 41.6016 44.0156 41.6016ZM63.4063 41.6016Q64 41.6016 64.375 41.2813Q64.75 40.9609 64.9297 40.3867Q65.1094 39.8125 65.1094 39.0469L65.1094 38.8828Q65.1094 38.1328 64.9297 37.5586Q64.75 36.9844 64.3711 36.6602Q63.9922 36.3359 63.3906 36.3359Q62.8047 36.3359 62.4219 36.6602Q62.0391 36.9844 61.8633 37.5586Q61.6875 38.1328 61.6875 38.8828L61.6875 39.0469Q61.6875 39.8125 61.8633 40.3906Q62.0391 40.9688 62.4219 41.2852Q62.8047 41.6016 63.4063 41.6016ZM207.305 41.6016Q208.18 41.6016 208.574 40.9531Q208.969 40.3047 208.969 39.1953L208.969 39.0313Q208.969 38.2266 208.789 37.6289Q208.609 37.0313 208.238 36.6914Q207.867 36.3516 207.289 36.3516Q206.82 36.3516 206.465 36.5625Q206.109 36.7734 205.898 37.1641L205.898 40.8672Q206.109 41.2266 206.465 41.4141Q206.82 41.6016 207.305 41.6016ZM187.859 38.1797L189.18 38.1797Q189.82 38.1719 190.113 37.957Q190.406 37.7422 190.406 37.3281Q190.406 36.4766 189.133 36.4766L187.859 36.4766L187.859 38.1797ZM187.859 41.4531L189.656 41.4531Q190.258 41.4531 190.551 41.2305Q190.844 41.0078 190.844 40.5625Q190.844 40.1328 190.57 39.8984Q190.297 39.6641 189.664 39.6641L187.859 39.6641L187.859 41.4531Z" />
      </g>
      <g id="им.-В.Г.-Шухова" fill="#01256D">
        <path d="M33.2891 64.1875L33.2891 62.8203L34.5 62.5859L34.5 54.4219L33.2891 54.1875L33.2891 52.8125L38.3438 52.8125Q40.3516 52.8125 41.4766 53.5938Q42.6016 54.375 42.6016 55.9297Q42.6016 56.7188 42.1836 57.3398Q41.7656 57.9609 40.9688 58.2734Q41.6484 58.4219 42.1055 58.7969Q42.5625 59.1719 42.7891 59.707Q43.0156 60.2422 43.0156 60.875Q43.0156 62.5078 41.9375 63.3477Q40.8594 64.1875 38.8828 64.1875L33.2891 64.1875ZM48.0156 64.1875L48.0156 62.8203L49.2266 62.5859L49.2266 54.4219L48.0156 54.1875L48.0156 52.8125L56.6406 52.8125L56.6406 55.6953L54.8906 55.6953L54.7969 54.5703L51.5078 54.5703L51.5078 62.5859L52.7266 62.8203L52.7266 64.1875L48.0156 64.1875ZM65.6016 64.1875L65.6016 62.8203L66.8203 62.5859L66.8203 54.4219L65.6016 54.1875L65.6016 52.8125L70.3125 52.8125L70.3125 54.1875L69.1016 54.4219L69.1016 62.4375L72.3203 62.4375L72.3203 54.4219L71.1016 54.1875L71.1016 52.8125L75.8047 52.8125L75.8047 54.1875L74.5938 54.4219L74.5938 62.4375L77.7813 62.4375L77.7813 54.4219L76.5625 54.1875L76.5625 52.8125L81.2734 52.8125L81.2734 54.1875L80.0547 54.4219L80.0547 62.5859L81.2734 62.8203L81.2734 64.1875L65.6016 64.1875ZM36.7813 57.5781L38.4219 57.5781Q39.3359 57.5781 39.8281 57.2031Q40.3203 56.8281 40.3203 56.1094Q40.3203 55.3203 39.8242 54.9453Q39.3281 54.5703 38.3438 54.5703L36.7813 54.5703L36.7813 57.5781ZM104.297 63.8047Q105.195 64.3516 106.445 64.3516Q107.688 64.3516 108.578 63.8047Q109.469 63.2578 109.945 62.2852Q110.422 61.3125 110.422 60.0469L110.422 59.8828Q110.422 58.6172 109.945 57.6484Q109.469 56.6797 108.578 56.1289Q107.688 55.5781 106.43 55.5781Q105.188 55.5781 104.293 56.1289Q103.398 56.6797 102.922 57.6523Q102.445 58.625 102.445 59.8828L102.445 60.0469Q102.445 61.3125 102.922 62.2852Q103.398 63.2578 104.297 63.8047ZM122.219 63.6758Q122.961 64.3516 124.219 64.3516Q124.961 64.3516 125.512 64.043Q126.063 63.7344 126.469 63.2188Q126.508 63.4688 126.594 63.7188Q126.68 63.9688 126.766 64.1875L129.594 64.1875L129.594 62.8203L128.711 62.6953Q128.688 62.5391 128.684 62.3711Q128.68 62.2031 128.68 62.0313L128.68 58.5469Q128.68 57.1172 127.719 56.3477Q126.758 55.5781 125.102 55.5781Q124.148 55.5781 123.375 55.8125Q122.602 56.0469 121.938 56.4219L121.969 58.6172L123.609 58.6172L123.789 57.5Q124.023 57.3359 124.316 57.2461Q124.609 57.1563 124.977 57.1563Q125.688 57.1563 126.043 57.5352Q126.398 57.9141 126.398 58.5234L126.398 59.1484L125.281 59.1484Q124.039 59.1484 123.191 59.4922Q122.344 59.8359 121.91 60.4375Q121.477 61.0391 121.477 61.8359Q121.477 63 122.219 63.6758ZM0.664063 64.1875L0.664063 62.8203L1.88281 62.5859L1.88281 57.3438L0.664063 57.1094L0.664063 55.7344L5.25781 55.7344L5.25781 57.1094L4.16406 57.3438L4.16406 60.8672L4.21094 60.875L6.96094 55.7344L10.4531 55.7344L10.4531 57.1094L9.24219 57.3438L9.24219 62.5859L10.4531 62.8203L10.4531 64.1875L5.86719 64.1875L5.86719 62.8203L6.96094 62.5859L6.96094 59.0469L6.91406 59.0391L4.16406 64.1875L0.664063 64.1875ZM11.7813 64.1875L11.7813 62.8203L13 62.5859L13 57.3438L11.7813 57.1094L11.7813 55.7344L15.8203 55.7344L17.9766 61.5313L18.0234 61.5313L20.1953 55.7344L24.2656 55.7344L24.2656 57.1094L23.0547 57.3438L23.0547 62.5859L24.2656 62.8203L24.2656 64.1875L19.9141 64.1875L19.9141 62.8203L20.7734 62.5859L20.7734 59.1563L20.7266 59.1484L18.7656 64.1875L17.2344 64.1875L15.3203 59.2422L15.2734 59.25L15.2734 62.5859L16.1406 62.8203L16.1406 64.1875L11.7813 64.1875ZM83.7852 67.5508Q84.1172 67.6016 84.4141 67.6016Q85.2266 67.6016 85.7852 67.3047Q86.3438 67.0078 86.707 66.5195Q87.0703 66.0313 87.3047 65.4453L90.5313 57.2422L91.4844 57.1094L91.4844 55.7344L87.3047 55.7344L87.3047 57.1094L88.3125 57.25L86.7422 61.4531L86.6953 61.4531L86.5313 60.9922L85.2031 57.2656L86.2344 57.1094L86.2344 55.7344L81.75 55.7344L81.75 57.1094L82.7891 57.2578L85.6172 64.2813L85.4297 64.8047Q85.2656 65.2891 84.9063 65.5469Q84.5469 65.8047 84.0547 65.8047Q83.9219 65.8047 83.7422 65.7891Q83.5625 65.7734 83.4141 65.7422L83.1563 67.4141Q83.4531 67.5 83.7852 67.5508ZM91.8516 64.1875L91.8516 62.8203L92.9375 62.6797L95.3594 59.9531L93.0703 57.2422L92.0469 57.1094L92.0469 55.7344L96.2344 55.7344L96.2344 57.0469L95.5781 57.1484L96.8047 58.7578L98.0313 57.1484L97.3047 57.0469L97.3047 55.7344L101.344 55.7344L101.344 57.1094L100.398 57.2422L98.2344 59.8594L100.648 62.6797L101.688 62.8203L101.688 64.1875L97.3516 64.1875L97.3516 62.8828L98.0859 62.7813L96.7813 61.1641L95.5078 62.7891L96.2266 62.8828L96.2266 64.1875L91.8516 64.1875ZM111.602 64.1875L111.602 62.8203L112.82 62.5859L112.82 57.3438L111.602 57.1094L111.602 55.7344L116.352 55.7344Q118.039 55.7344 118.98 56.3203Q119.922 56.9063 119.922 58.0469Q119.922 58.6719 119.547 59.1367Q119.172 59.6016 118.406 59.8516Q119.414 60.0469 119.887 60.5664Q120.359 61.0859 120.359 61.8203Q120.359 62.9766 119.465 63.582Q118.57 64.1875 116.898 64.1875L111.602 64.1875ZM107.414 62.2813Q107.039 62.6016 106.445 62.6016Q105.844 62.6016 105.461 62.2852Q105.078 61.9688 104.902 61.3906Q104.727 60.8125 104.727 60.0469L104.727 59.8828Q104.727 59.1328 104.902 58.5586Q105.078 57.9844 105.461 57.6602Q105.844 57.3359 106.43 57.3359Q107.031 57.3359 107.41 57.6602Q107.789 57.9844 107.969 58.5586Q108.148 59.1328 108.148 59.8828L108.148 60.0469Q108.148 60.8125 107.969 61.3867Q107.789 61.9609 107.414 62.2813ZM115.094 59.1797L116.414 59.1797Q117.055 59.1719 117.348 58.957Q117.641 58.7422 117.641 58.3281Q117.641 57.4766 116.367 57.4766L115.094 57.4766L115.094 59.1797ZM36.7813 62.4375L38.8828 62.4375Q39.7891 62.4375 40.2656 62.043Q40.7422 61.6484 40.7422 60.875Q40.7422 60.3125 40.5625 59.9297Q40.3828 59.5469 40.0117 59.3516Q39.6406 59.1563 39.0547 59.1563L36.7813 59.1563L36.7813 62.4375ZM125.734 62.4492Q125.305 62.6641 124.828 62.6641Q124.32 62.6641 124.035 62.418Q123.75 62.1719 123.75 61.7188Q123.75 61.2344 124.137 60.8906Q124.523 60.5469 125.273 60.5469L126.398 60.5469L126.398 61.8828Q126.164 62.2344 125.734 62.4492ZM115.094 62.4531L116.891 62.4531Q117.492 62.4531 117.785 62.2305Q118.078 62.0078 118.078 61.5625Q118.078 61.1328 117.805 60.8984Q117.531 60.6641 116.898 60.6641L115.094 60.6641L115.094 62.4531ZM25.8594 62.1875L25.8594 64.1875L28.1328 64.1875L28.1328 62.1875L25.8594 62.1875ZM44.4375 62.1875L44.4375 64.1875L46.7109 64.1875L46.7109 62.1875L44.4375 62.1875ZM58.0703 62.1875L58.0703 64.1875L60.3438 64.1875L60.3438 62.1875L58.0703 62.1875Z" />
      </g>
      <g id="Северо-Кавказский-филиал" fill="#01256D">
        <path d="M151.547 74.6367Q152.195 75.25 153.328 75.25Q154.461 75.25 155.105 74.6367Q155.75 74.0234 155.758 73.0469L155.742 73L154.563 73Q154.563 73.5625 154.258 73.9141Q153.953 74.2656 153.328 74.2656Q152.688 74.2656 152.387 73.9141Q152.086 73.5625 152.086 73L150.914 73L150.898 73.0469Q150.898 74.0234 151.547 74.6367ZM166.344 88.4375L166.344 87.4453L167.617 87.2266L167.617 85.1484Q167.367 85.2422 167.082 85.2969Q166.797 85.3516 166.477 85.3516Q165.5 85.3516 164.82 84.8477Q164.141 84.3438 163.781 83.4258Q163.422 82.5078 163.422 81.2813L163.422 81.1172Q163.422 79.75 163.777 78.7266Q164.133 77.7031 164.816 77.1406Q165.5 76.5781 166.492 76.5781Q166.805 76.5781 167.086 76.6328Q167.367 76.6875 167.617 76.7813L167.617 74.2109L166.344 73.9922L166.344 73L169.156 73L169.156 76.8281Q169.422 76.7109 169.734 76.6445Q170.047 76.5781 170.414 76.5781Q171.398 76.5781 172.086 77.1406Q172.773 77.7031 173.133 78.7266Q173.492 79.75 173.492 81.1172L173.492 81.2813Q173.492 82.5078 173.133 83.4258Q172.773 84.3438 172.09 84.8477Q171.406 85.3516 170.43 85.3516Q170.063 85.3516 169.742 85.2891Q169.422 85.2266 169.156 85.1172L169.156 87.2266L170.43 87.4453L170.43 88.4375L166.344 88.4375ZM5.77344 85.3516Q4.0625 85.3516 2.91797 84.6016Q1.77344 83.8516 1.19922 82.5469Q0.625 81.2422 0.625 79.5859L0.625 79.4219Q0.625 77.75 1.22656 76.4492Q1.82812 75.1484 2.95313 74.3984Q4.07812 73.6484 5.64063 73.6484Q6.74219 73.6484 7.65625 73.9922Q8.57031 74.3359 9.17188 74.8672L9.17188 77.3203L7.94531 77.3203L7.78125 75.5234Q7.53125 75.3281 7.20703 75.1953Q6.88281 75.0625 6.48828 74.9922Q6.09375 74.9219 5.63281 74.9219Q4.51562 74.9219 3.74219 75.4961Q2.96875 76.0703 2.57031 77.0781Q2.17188 78.0859 2.17188 79.4063L2.17188 79.5859Q2.17188 81.0156 2.59766 82.0273Q3.02344 83.0391 3.83984 83.5703Q4.65625 84.1016 5.82813 84.1016Q6.375 84.1016 6.89844 83.9688Q7.42187 83.8359 7.76563 83.625L7.9375 82.0391L9.14063 82.0391L9.14063 84.5078Q8.5 84.9063 7.60938 85.1289Q6.71875 85.3516 5.77344 85.3516ZM62.2422 85.1875L62.2422 84.2031L63.5156 83.9844L63.5156 75.0234L62.2422 74.8047L62.2422 73.8125L66.3281 73.8125L66.3281 74.8047L65.0547 75.0234L65.0547 78.9375L66.2969 78.9375L68.8672 75.2344Q69.5 74.3594 69.9688 74.043Q70.4375 73.7266 71.0547 73.7266Q71.4219 73.7266 71.6758 73.8164Q71.9297 73.9063 72.2109 74.0781L71.9844 75.1641Q71.7734 75.125 71.6133 75.0977Q71.4531 75.0703 71.2969 75.0703Q70.9297 75.0703 70.6758 75.2656Q70.4219 75.4609 70.0859 75.9297L67.6406 79.3359L71.4219 84.0078L72.4922 84.2031L72.4922 85.1875L68.7578 85.1875L68.7578 84.2031L69.625 84.0938L69.5938 84.0547L66.5234 80.2344L65.0547 80.2344L65.0547 83.9844L66.3281 84.2031L66.3281 85.1875L62.2422 85.1875ZM14.75 85.3516Q13.5781 85.3516 12.7109 84.8164Q11.8438 84.2813 11.3711 83.3281Q10.8984 82.375 10.8984 81.125L10.8984 80.7813Q10.8984 79.5781 11.3945 78.6289Q11.8906 77.6797 12.7148 77.1289Q13.5391 76.5781 14.5156 76.5781Q15.6563 76.5781 16.4258 77.0469Q17.1953 77.5156 17.5859 78.3633Q17.9766 79.2109 17.9766 80.3594L17.9766 81.3203L12.4922 81.3203L12.4688 81.3594Q12.4844 82.1719 12.7539 82.8008Q13.0234 83.4297 13.5313 83.7891Q14.0391 84.1484 14.75 84.1484Q15.5313 84.1484 16.1211 83.9258Q16.7109 83.7031 17.1406 83.3125L17.7422 84.3125Q17.2891 84.75 16.543 85.0508Q15.7969 85.3516 14.75 85.3516ZM32.9531 85.3516Q31.7813 85.3516 30.9141 84.8164Q30.0469 84.2813 29.5742 83.3281Q29.1016 82.375 29.1016 81.125L29.1016 80.7813Q29.1016 79.5781 29.5977 78.6289Q30.0938 77.6797 30.918 77.1289Q31.7422 76.5781 32.7188 76.5781Q33.8594 76.5781 34.6289 77.0469Q35.3984 77.5156 35.7891 78.3633Q36.1797 79.2109 36.1797 80.3594L36.1797 81.3203L30.6953 81.3203L30.6719 81.3594Q30.6875 82.1719 30.957 82.8008Q31.2266 83.4297 31.7344 83.7891Q32.2422 84.1484 32.9531 84.1484Q33.7344 84.1484 34.3242 83.9258Q34.9141 83.7031 35.3438 83.3125L35.9453 84.3125Q35.4922 84.75 34.7461 85.0508Q34 85.3516 32.9531 85.3516ZM37.1406 87.4453L37.1406 88.4375L41.2188 88.4375L41.2188 87.4453L39.875 87.2266L39.875 84.3125Q40.2891 84.8281 40.8789 85.0898Q41.4688 85.3516 42.25 85.3516Q43.2813 85.3516 44.0156 84.8398Q44.75 84.3281 45.1445 83.4141Q45.5391 82.5 45.5391 81.2813L45.5391 81.1172Q45.5391 79.75 45.1484 78.7305Q44.7578 77.7109 44.0156 77.1445Q43.2734 76.5781 42.2266 76.5781Q41.4297 76.5781 40.8242 76.8828Q40.2188 77.1875 39.7969 77.7656L39.6563 76.7344L37.0625 76.7344L37.0625 77.7266L38.3359 77.9453L38.3359 87.2266L37.1406 87.4453ZM50.8828 85.3516Q49.7109 85.3516 48.8633 84.8008Q48.0156 84.25 47.5547 83.2773Q47.0938 82.3047 47.0938 81.0547L47.0938 80.8828Q47.0938 79.6328 47.5547 78.6602Q48.0156 77.6875 48.8633 77.1328Q49.7109 76.5781 50.8672 76.5781Q52.0391 76.5781 52.8867 77.1328Q53.7344 77.6875 54.1953 78.6563Q54.6563 79.625 54.6563 80.8828L54.6563 81.0547Q54.6563 82.3125 54.1953 83.2852Q53.7344 84.2578 52.8906 84.8047Q52.0469 85.3516 50.8828 85.3516ZM74.3359 84.707Q75.0234 85.3516 76.3438 85.3516Q77.1016 85.3516 77.7695 84.9727Q78.4375 84.5938 78.8828 84.0234Q78.8984 84.2969 78.9375 84.5703Q78.9766 84.8438 79.0469 85.1875L81.2578 85.1875L81.2578 84.2031L80.4375 84.1172Q80.4219 83.9609 80.418 83.8047Q80.4141 83.6484 80.4141 83.4844L80.4141 79.4141Q80.4141 78.0469 79.5391 77.3125Q78.6641 76.5781 77.125 76.5781Q76.2031 76.5781 75.4453 76.8164Q74.6875 77.0547 74.1172 77.5156L74.1172 79.4531L75.3047 79.4531L75.4688 78.2734Q75.7891 78.0469 76.1797 77.918Q76.5703 77.7891 77.1016 77.7891Q77.9453 77.7891 78.4102 78.2109Q78.875 78.6328 78.875 79.3984L78.875 80.2266L77.3672 80.2266Q76.2031 80.2266 75.3672 80.5586Q74.5313 80.8906 74.0898 81.4883Q73.6484 82.0859 73.6484 82.8906Q73.6484 84.0625 74.3359 84.707ZM104.992 85.3516Q103.672 85.3516 102.984 84.707Q102.297 84.0625 102.297 82.8906Q102.297 82.0859 102.738 81.4883Q103.18 80.8906 104.016 80.5586Q104.852 80.2266 106.016 80.2266L107.523 80.2266L107.523 79.3984Q107.523 78.6328 107.059 78.2109Q106.594 77.7891 105.75 77.7891Q105.219 77.7891 104.828 77.918Q104.438 78.0469 104.117 78.2734L103.953 79.4531L102.766 79.4531L102.766 77.5156Q103.336 77.0547 104.094 76.8164Q104.852 76.5781 105.773 76.5781Q107.313 76.5781 108.188 77.3125Q109.063 78.0469 109.063 79.4141L109.063 83.4844Q109.063 83.6484 109.066 83.8047Q109.07 83.9609 109.086 84.1172L109.906 84.2031L109.906 85.1875L107.695 85.1875Q107.625 84.8438 107.586 84.5703Q107.547 84.2969 107.531 84.0234Q107.086 84.5938 106.418 84.9727Q105.75 85.3516 104.992 85.3516ZM123.109 85.3516Q121.961 85.3516 121.109 84.8164Q120.258 84.2813 119.789 83.3281Q119.32 82.375 119.32 81.125L119.32 80.7969Q119.32 79.5938 119.773 78.6406Q120.227 77.6875 121.078 77.1328Q121.93 76.5781 123.109 76.5781Q124.133 76.5781 124.902 76.9141Q125.672 77.25 126.195 77.8359L126.234 79.8672L125.031 79.8672L124.766 78.3906Q124.5 78.1172 124.102 77.9531Q123.703 77.7891 123.164 77.7891Q122.477 77.7891 121.957 78.1953Q121.438 78.6016 121.148 79.2813Q120.859 79.9609 120.859 80.7969L120.859 81.125Q120.859 82.0469 121.129 82.7266Q121.398 83.4063 121.902 83.7773Q122.406 84.1484 123.102 84.1484Q123.883 84.1484 124.398 83.7188Q124.914 83.2891 125.031 82.5391L126.414 82.5391L126.43 82.5859Q126.391 83.3125 126 83.9453Q125.609 84.5781 124.887 84.9648Q124.164 85.3516 123.109 85.3516ZM209.609 85.3516Q208.289 85.3516 207.602 84.707Q206.914 84.0625 206.914 82.8906Q206.914 82.0859 207.355 81.4883Q207.797 80.8906 208.633 80.5586Q209.469 80.2266 210.633 80.2266L212.141 80.2266L212.141 79.3984Q212.141 78.6328 211.676 78.2109Q211.211 77.7891 210.367 77.7891Q209.836 77.7891 209.445 77.918Q209.055 78.0469 208.734 78.2734L208.57 79.4531L207.383 79.4531L207.383 77.5156Q207.953 77.0547 208.711 76.8164Q209.469 76.5781 210.391 76.5781Q211.93 76.5781 212.805 77.3125Q213.68 78.0469 213.68 79.4141L213.68 83.4844Q213.68 83.6484 213.684 83.8047Q213.688 83.9609 213.703 84.1172L214.523 84.2031L214.523 85.1875L212.313 85.1875Q212.242 84.8438 212.203 84.5703Q212.164 84.2969 212.148 84.0234Q211.703 84.5938 211.035 84.9727Q210.367 85.3516 209.609 85.3516ZM92.5625 84.2031L92.5625 85.1875L96.6484 85.1875L96.6484 84.2031L95.375 83.9844L95.375 81.6016L96.375 81.6016L99.2344 85.1875L101.289 85.1875L101.289 84.2031L100.203 84.0078L97.5391 80.7578L99.1719 78.6406Q99.3828 78.3516 99.6602 78.1406Q99.9375 77.9297 100.227 77.9297Q100.383 77.9297 100.434 77.9375Q100.484 77.9453 100.82 78L101.039 76.9531Q100.742 76.7656 100.508 76.6758Q100.273 76.5859 99.9141 76.5859Q99.3438 76.5859 98.8867 76.9297Q98.4297 77.2734 97.9531 77.9375L96.1875 80.3047L95.375 80.3047L95.375 77.9453L96.6484 77.7266L96.6484 76.7344L92.5625 76.7344L92.5625 77.7266L93.8359 77.9453L93.8359 83.9844L92.5625 84.2031ZM127.805 84.2031L127.805 85.1875L131.891 85.1875L131.891 84.2031L130.617 83.9844L130.617 81.6016L131.617 81.6016L134.477 85.1875L136.531 85.1875L136.531 84.2031L135.445 84.0078L132.781 80.7578L134.414 78.6406Q134.625 78.3516 134.902 78.1406Q135.18 77.9297 135.469 77.9297Q135.625 77.9297 135.676 77.9375Q135.727 77.9453 136.063 78L136.281 76.9531Q135.984 76.7656 135.75 76.6758Q135.516 76.5859 135.156 76.5859Q134.586 76.5859 134.129 76.9297Q133.672 77.2734 133.195 77.9375L131.43 80.3047L130.617 80.3047L130.617 77.9453L131.891 77.7266L131.891 76.7344L127.805 76.7344L127.805 77.7266L129.078 77.9453L129.078 83.9844L127.805 84.2031ZM112.852 85.0391Q113.617 85.3359 114.539 85.3359Q115.531 85.3359 116.277 85.0313Q117.023 84.7266 117.438 84.1602Q117.852 83.5938 117.852 82.8047Q117.852 81.3594 116.391 80.8438Q117.008 80.5703 117.352 80.0938Q117.695 79.6172 117.695 79.0469Q117.695 77.8672 116.859 77.2305Q116.023 76.5938 114.539 76.5938Q113.625 76.5938 112.891 76.9063Q112.156 77.2188 111.738 77.7695Q111.32 78.3203 111.352 79.0469L111.367 79.0938L112.828 79.0938Q112.828 78.7266 113.055 78.4297Q113.281 78.1328 113.668 77.957Q114.055 77.7813 114.539 77.7813Q115.352 77.7813 115.75 78.1484Q116.148 78.5156 116.148 79.0469Q116.148 79.6328 115.801 79.9414Q115.453 80.25 114.641 80.25L113.172 80.25L113.172 81.5L114.641 81.5Q115.492 81.5 115.895 81.8125Q116.297 82.125 116.297 82.8047Q116.297 83.3828 115.836 83.7695Q115.375 84.1563 114.539 84.1563Q114 84.1563 113.582 83.9531Q113.164 83.75 112.93 83.418Q112.695 83.0859 112.695 82.6875L111.234 82.6875L111.219 82.7344Q111.195 83.5781 111.641 84.1602Q112.086 84.7422 112.852 85.0391ZM19.3516 84.2031L19.3516 85.1875L24.4922 85.1875Q26.0469 85.1875 26.9102 84.5781Q27.7734 83.9688 27.7734 82.7813Q27.7734 82.0938 27.3281 81.5586Q26.8828 81.0234 26.0938 80.8281Q26.75 80.5859 27.1094 80.1211Q27.4688 79.6563 27.4688 79.0625Q27.4688 77.8984 26.5469 77.3164Q25.625 76.7344 23.9531 76.7344L19.3516 76.7344L19.3516 77.7266L20.625 77.9453L20.625 83.9844L19.3516 84.2031ZM82.6328 85.1875L82.6328 84.2031L83.9063 83.9844L83.9063 77.9453L82.6328 77.7266L82.6328 76.7344L87.2344 76.7344Q88.9063 76.7344 89.8281 77.3164Q90.75 77.8984 90.75 79.0625Q90.75 79.6563 90.3906 80.1211Q90.0313 80.5859 89.375 80.8281Q90.1641 81.0234 90.6094 81.5586Q91.0547 82.0938 91.0547 82.7813Q91.0547 83.9688 90.1914 84.5781Q89.3281 85.1875 87.7734 85.1875L82.6328 85.1875ZM137.68 85.1875L137.68 84.2031L138.953 83.9844L138.953 77.9453L137.68 77.7266L137.68 76.7344L141.758 76.7344L141.758 77.7266L140.484 77.9453L140.484 82.7188L140.531 82.7344L144.258 76.7344L147.07 76.7344L147.07 77.7266L145.797 77.9453L145.797 83.9844L147.07 84.2031L147.07 85.1875L142.984 85.1875L142.984 84.2031L144.258 83.9844L144.258 79.2031L144.211 79.1875L140.484 85.1875L137.68 85.1875ZM148.586 84.2031L148.586 85.1875L151.391 85.1875L155.117 79.1875L155.164 79.2031L155.164 83.9844L153.891 84.2031L153.891 85.1875L157.977 85.1875L157.977 84.2031L156.703 83.9844L156.703 77.9453L157.977 77.7266L157.977 76.7344L155.164 76.7344L151.438 82.7344L151.391 82.7188L151.391 77.9453L152.664 77.7266L152.664 76.7344L148.586 76.7344L148.586 77.7266L149.859 77.9453L149.859 83.9844L148.586 84.2031ZM174.961 84.2031L174.961 85.1875L177.766 85.1875L181.492 79.1875L181.539 79.2031L181.539 83.9844L180.266 84.2031L180.266 85.1875L184.352 85.1875L184.352 84.2031L183.078 83.9844L183.078 77.9453L184.352 77.7266L184.352 76.7344L181.539 76.7344L177.813 82.7344L177.766 82.7188L177.766 77.9453L179.039 77.7266L179.039 76.7344L174.961 76.7344L174.961 77.7266L176.234 77.9453L176.234 83.9844L174.961 84.2031ZM185.648 85.1875L185.672 83.875L185.992 83.8672Q186.547 83.8672 186.867 83.5195Q187.188 83.1719 187.328 82.3945Q187.469 81.6172 187.469 80.3438L187.469 77.9453L186.195 77.7266L186.195 76.7344L194.688 76.7344L194.688 77.7266L193.414 77.9453L193.414 83.9844L194.688 84.2031L194.688 85.1875L190.602 85.1875L190.602 84.2031L191.875 83.9844L191.875 77.9531L189.008 77.9531L189.008 80.3438Q189.008 82.8438 188.348 84.0156Q187.688 85.1875 186.086 85.1875L185.648 85.1875ZM196.148 84.2031L196.148 85.1875L198.953 85.1875L202.68 79.1875L202.727 79.2031L202.727 83.9844L201.453 84.2031L201.453 85.1875L205.539 85.1875L205.539 84.2031L204.266 83.9844L204.266 77.9453L205.539 77.7266L205.539 76.7344L202.727 76.7344L199 82.7344L198.953 82.7188L198.953 77.9453L200.227 77.7266L200.227 76.7344L196.148 76.7344L196.148 77.7266L197.422 77.9453L197.422 83.9844L196.148 84.2031ZM215.703 83.875L215.68 85.1875L216.117 85.1875Q217.719 85.1875 218.379 84.0156Q219.039 82.8438 219.039 80.3438L219.039 77.9531L221.906 77.9531L221.906 83.9844L220.633 84.2031L220.633 85.1875L224.719 85.1875L224.719 84.2031L223.445 83.9844L223.445 77.9453L224.719 77.7266L224.719 76.7344L216.227 76.7344L216.227 77.7266L217.5 77.9453L217.5 80.3438Q217.5 81.6172 217.359 82.3945Q217.219 83.1719 216.898 83.5195Q216.578 83.8672 216.023 83.8672L215.703 83.875ZM12.5391 80.1172L16.4375 80.1172L16.4375 79.9141Q16.4375 79.3047 16.2227 78.8242Q16.0078 78.3438 15.582 78.0664Q15.1563 77.7891 14.5156 77.7891Q14 77.7891 13.5781 78.0898Q13.1563 78.3906 12.8828 78.9063Q12.6094 79.4219 12.5234 80.0781L12.5391 80.1172ZM30.7422 80.1172L34.6406 80.1172L34.6406 79.9141Q34.6406 79.3047 34.4258 78.8242Q34.2109 78.3438 33.7852 78.0664Q33.3594 77.7891 32.7188 77.7891Q32.2031 77.7891 31.7813 78.0898Q31.3594 78.3906 31.0859 78.9063Q30.8125 79.4219 30.7266 80.0781L30.7422 80.1172ZM50.8828 84.1484Q51.6172 84.1484 52.1133 83.7461Q52.6094 83.3438 52.8633 82.6445Q53.1172 81.9453 53.1172 81.0547L53.1172 80.8828Q53.1172 79.9922 52.8633 79.293Q52.6094 78.5938 52.1094 78.1914Q51.6094 77.7891 50.8672 77.7891Q50.1328 77.7891 49.6328 78.1914Q49.1328 78.5938 48.8828 79.293Q48.6328 79.9922 48.6328 80.8828L48.6328 81.0547Q48.6328 81.9453 48.8828 82.6445Q49.1328 83.3438 49.6367 83.7461Q50.1406 84.1484 50.8828 84.1484ZM166.867 84.1484Q167.086 84.1484 167.273 84.1211Q167.461 84.0938 167.617 84.0391L167.617 77.8984Q167.461 77.8516 167.277 77.8203Q167.094 77.7891 166.883 77.7891Q166.203 77.7891 165.781 78.207Q165.359 78.625 165.16 79.375Q164.961 80.125 164.961 81.1172L164.961 81.2813Q164.961 82.5859 165.41 83.3672Q165.859 84.1484 166.867 84.1484ZM169.961 84.1484Q170.969 84.1484 171.457 83.3594Q171.945 82.5703 171.945 81.2813L171.945 81.1172Q171.945 80.1406 171.727 79.3906Q171.508 78.6406 171.066 78.2148Q170.625 77.7891 169.945 77.7891Q169.711 77.7891 169.516 77.8242Q169.32 77.8594 169.156 77.9219L169.156 84.0391Q169.313 84.0938 169.512 84.1211Q169.711 84.1484 169.961 84.1484ZM43.4297 83.3516Q42.8672 84.1484 41.7734 84.1484Q41.0938 84.1484 40.6289 83.8633Q40.1641 83.5781 39.875 83.0547L39.875 78.9375Q40.1641 78.4219 40.6328 78.125Q41.1016 77.8281 41.7578 77.8281Q42.5 77.8281 42.9961 78.25Q43.4922 78.6719 43.7422 79.4102Q43.9922 80.1484 43.9922 81.1172L43.9922 81.2813Q43.9922 82.5547 43.4297 83.3516ZM23.9609 80.3047L22.1641 80.3047L22.1641 77.9297L23.9531 77.9297Q25.9297 77.9297 25.9297 79.1406Q25.9297 79.7266 25.4336 80.0156Q24.9375 80.3047 23.9609 80.3047ZM85.4453 80.3047L87.2422 80.3047Q88.2188 80.3047 88.7148 80.0156Q89.2109 79.7266 89.2109 79.1406Q89.2109 77.9297 87.2344 77.9297L85.4453 77.9297L85.4453 80.3047ZM56.6641 79.7813L56.6641 80.9844L60.4844 80.9844L60.4844 79.7813L56.6641 79.7813ZM77.9688 83.6953Q77.3359 84.0625 76.5703 84.0625Q75.875 84.0625 75.5313 83.7695Q75.1875 83.4766 75.1875 82.9219Q75.1875 82.2969 75.7188 81.7891Q76.25 81.2813 77.3125 81.2813L78.875 81.2813L78.875 82.8125Q78.6016 83.3281 77.9688 83.6953ZM105.219 84.0625Q105.984 84.0625 106.617 83.6953Q107.25 83.3281 107.523 82.8125L107.523 81.2813L105.961 81.2813Q104.898 81.2813 104.367 81.7891Q103.836 82.2969 103.836 82.9219Q103.836 83.4766 104.18 83.7695Q104.523 84.0625 105.219 84.0625ZM209.836 84.0625Q210.602 84.0625 211.234 83.6953Q211.867 83.3281 212.141 82.8125L212.141 81.2813L210.578 81.2813Q209.516 81.2813 208.984 81.7891Q208.453 82.2969 208.453 82.9219Q208.453 83.4766 208.797 83.7695Q209.141 84.0625 209.836 84.0625ZM24.4922 84L22.1641 84L22.1641 81.4844L24.4922 81.4844Q25.3516 81.4844 25.7891 81.8125Q26.2266 82.1406 26.2266 82.7422Q26.2266 83.3516 25.7891 83.6758Q25.3516 84 24.4922 84ZM85.4453 84L87.7734 84Q88.6328 84 89.0703 83.6758Q89.5078 83.3516 89.5078 82.7422Q89.5078 82.1406 89.0703 81.8125Q88.6328 81.4844 87.7734 81.4844L85.4453 81.4844L85.4453 84Z" />
      </g>
    </g>
  </g>
</svg>